<svg id="my-svg" width="100%" xmlns="http://www.w3.org/2000/svg" xmlns:xlink="http://www.w3.org/1999/xlink" class="flowchart" style="max-width: 1171.8px; background-color: transparent;" viewBox="0 0 1171.796875 710" role="graphics-document document" aria-roledescription="flowchart-v2"><style>#my-svg{font-family:"trebuchet ms",verdana,arial,sans-serif;font-size:16px;fill:#333;}@keyframes edge-animation-frame{from{stroke-dashoffset:0;}}@keyframes dash{to{stroke-dashoffset:0;}}#my-svg .edge-animation-slow{stroke-dasharray:9,5!important;stroke-dashoffset:900;animation:dash 50s linear infinite;stroke-linecap:round;}#my-svg .edge-animation-fast{stroke-dasharray:9,5!important;stroke-dashoffset:900;animation:dash 20s linear infinite;stroke-linecap:round;}#my-svg .error-icon{fill:#552222;}#my-svg .error-text{fill:#552222;stroke:#552222;}#my-svg .edge-thickness-normal{stroke-width:1px;}#my-svg .edge-thickness-thick{stroke-width:3.5px;}#my-svg .edge-pattern-solid{stroke-dasharray:0;}#my-svg .edge-thickness-invisible{stroke-width:0;fill:none;}#my-svg .edge-pattern-dashed{stroke-dasharray:3;}#my-svg .edge-pattern-dotted{stroke-dasharray:2;}#my-svg .marker{fill:#333333;stroke:#333333;}#my-svg .marker.cross{stroke:#333333;}#my-svg svg{font-family:"trebuchet ms",verdana,arial,sans-serif;font-size:16px;}#my-svg p{margin:0;}#my-svg .label{font-family:"trebuchet ms",verdana,arial,sans-serif;color:#333;}#my-svg .cluster-label text{fill:#333;}#my-svg .cluster-label span{color:#333;}#my-svg .cluster-label span p{background-color:transparent;}#my-svg .label text,#my-svg span{fill:#333;color:#333;}#my-svg .node rect,#my-svg .node circle,#my-svg .node ellipse,#my-svg .node polygon,#my-svg .node path{fill:#ECECFF;stroke:#9370DB;stroke-width:1px;}#my-svg .rough-node .label text,#my-svg .node .label text,#my-svg .image-shape .label,#my-svg .icon-shape .label{text-anchor:middle;}#my-svg .node .katex path{fill:#000;stroke:#000;stroke-width:1px;}#my-svg .rough-node .label,#my-svg .node .label,#my-svg .image-shape .label,#my-svg .icon-shape .label{text-align:center;}#my-svg .node.clickable{cursor:pointer;}#my-svg .root .anchor path{fill:#333333!important;stroke-width:0;stroke:#333333;}#my-svg .arrowheadPath{fill:#333333;}#my-svg .edgePath .path{stroke:#333333;stroke-width:1px;}#my-svg .flowchart-link{stroke:#333333;fill:none;}#my-svg .edgeLabel{background-color:rgba(232,232,232, 0.8);text-align:center;}#my-svg .edgeLabel p{background-color:rgba(232,232,232, 0.8);}#my-svg .edgeLabel rect{opacity:0.5;background-color:rgba(232,232,232, 0.8);fill:rgba(232,232,232, 0.8);}#my-svg .labelBkg{background-color:rgba(232, 232, 232, 0.5);}#my-svg .cluster rect{fill:#ffffde;stroke:#aaaa33;stroke-width:1px;}#my-svg .cluster text{fill:#333;}#my-svg .cluster span{color:#333;}#my-svg div.mermaidTooltip{position:absolute;text-align:center;max-width:200px;padding:2px;font-family:"trebuchet ms",verdana,arial,sans-serif;font-size:12px;background:hsl(80, 100%, 96.2745098039%);border:1px solid #aaaa33;border-radius:2px;pointer-events:none;z-index:100;}#my-svg .flowchartTitleText{text-anchor:middle;font-size:18px;fill:#333;}#my-svg rect.text{fill:none;stroke-width:0;}#my-svg .icon-shape,#my-svg .image-shape{background-color:rgba(232,232,232, 0.8);text-align:center;}#my-svg .icon-shape p,#my-svg .image-shape p{background-color:rgba(232,232,232, 0.8);padding:2px;}#my-svg .icon-shape .label rect,#my-svg .image-shape .label rect{opacity:0.5;background-color:rgba(232,232,232, 0.8);fill:rgba(232,232,232, 0.8);}#my-svg .label-icon{display:inline-block;height:1em;overflow:visible;vertical-align:-0.125em;}#my-svg .node .label-icon path{fill:currentColor;stroke:revert;stroke-width:revert;}#my-svg .node .neo-node{stroke:#9370DB;}#my-svg [data-look="neo"].node rect,#my-svg [data-look="neo"].cluster rect,#my-svg [data-look="neo"].node polygon{stroke:#9370DB;filter:drop-shadow(1px 2px 2px rgba(185, 185, 185, 1));}#my-svg [data-look="neo"].node path{stroke:#9370DB;stroke-width:1px;}#my-svg [data-look="neo"].node .outer-path{filter:drop-shadow(1px 2px 2px rgba(185, 185, 185, 1));}#my-svg [data-look="neo"].node .neo-line path{stroke:#9370DB;filter:none;}#my-svg [data-look="neo"].node circle{stroke:#9370DB;filter:drop-shadow(1px 2px 2px rgba(185, 185, 185, 1));}#my-svg [data-look="neo"].node circle .state-start{fill:#000000;}#my-svg [data-look="neo"].icon-shape .icon{fill:#9370DB;filter:drop-shadow(1px 2px 2px rgba(185, 185, 185, 1));}#my-svg [data-look="neo"].icon-shape .icon-neo path{stroke:#9370DB;filter:drop-shadow(1px 2px 2px rgba(185, 185, 185, 1));}#my-svg :root{--mermaid-font-family:"trebuchet ms",verdana,arial,sans-serif;}#my-svg .provider&gt;*{fill:rgb(15, 23, 42)!important;stroke:rgb(56, 189, 248)!important;stroke-width:2px!important;color:rgb(224, 242, 254)!important;}#my-svg .provider span{fill:rgb(15, 23, 42)!important;stroke:rgb(56, 189, 248)!important;stroke-width:2px!important;color:rgb(224, 242, 254)!important;}#my-svg .provider tspan{fill:rgb(224, 242, 254)!important;}#my-svg .optional&gt;*{fill:rgb(49, 46, 129)!important;stroke:rgb(165, 180, 252)!important;stroke-width:2px!important;color:rgb(238, 242, 255)!important;}#my-svg .optional span{fill:rgb(49, 46, 129)!important;stroke:rgb(165, 180, 252)!important;stroke-width:2px!important;color:rgb(238, 242, 255)!important;}#my-svg .optional tspan{fill:rgb(238, 242, 255)!important;}#my-svg .mux&gt;*{fill:rgb(4, 47, 46)!important;stroke:rgb(45, 212, 191)!important;stroke-width:2px!important;color:rgb(204, 251, 241)!important;}#my-svg .mux span{fill:rgb(4, 47, 46)!important;stroke:rgb(45, 212, 191)!important;stroke-width:2px!important;color:rgb(204, 251, 241)!important;}#my-svg .mux tspan{fill:rgb(204, 251, 241)!important;}#my-svg .io&gt;*{fill:rgb(19, 78, 74)!important;stroke:rgb(94, 234, 212)!important;stroke-width:2px!important;color:rgb(240, 253, 250)!important;}#my-svg .io span{fill:rgb(19, 78, 74)!important;stroke:rgb(94, 234, 212)!important;stroke-width:2px!important;color:rgb(240, 253, 250)!important;}#my-svg .io tspan{fill:rgb(240, 253, 250)!important;}#my-svg .app&gt;*{fill:rgb(23, 37, 84)!important;stroke:rgb(96, 165, 250)!important;stroke-width:2px!important;color:rgb(219, 234, 254)!important;}#my-svg .app span{fill:rgb(23, 37, 84)!important;stroke:rgb(96, 165, 250)!important;stroke-width:2px!important;color:rgb(219, 234, 254)!important;}#my-svg .app tspan{fill:rgb(219, 234, 254)!important;}</style><g><marker id="my-svg_flowchart-v2-pointEnd" class="marker flowchart-v2" viewBox="0 0 10 10" refX="5" refY="5" markerUnits="userSpaceOnUse" markerWidth="8" markerHeight="8" orient="auto"><path d="M 0 0 L 10 5 L 0 10 z" class="arrowMarkerPath" style="stroke-width: 1; stroke-dasharray: 1, 0;"/></marker><marker id="my-svg_flowchart-v2-pointStart" class="marker flowchart-v2" viewBox="0 0 10 10" refX="4.5" refY="5" markerUnits="userSpaceOnUse" markerWidth="8" markerHeight="8" orient="auto"><path d="M 0 5 L 10 10 L 10 0 z" class="arrowMarkerPath" style="stroke-width: 1; stroke-dasharray: 1, 0;"/></marker><marker id="my-svg_flowchart-v2-pointEnd-margin" class="marker flowchart-v2" viewBox="0 0 11.5 14" refX="11.5" refY="7" markerUnits="userSpaceOnUse" markerWidth="10.5" markerHeight="14" orient="auto"><path d="M 0 0 L 11.5 7 L 0 14 z" class="arrowMarkerPath" style="stroke-width: 0; stroke-dasharray: 1, 0;"/></marker><marker id="my-svg_flowchart-v2-pointStart-margin" class="marker flowchart-v2" viewBox="0 0 11.5 14" refX="1" refY="7" markerUnits="userSpaceOnUse" markerWidth="11.5" markerHeight="14" orient="auto"><polygon points="0,7 11.5,14 11.5,0" class="arrowMarkerPath" style="stroke-width: 0; stroke-dasharray: 1, 0;"/></marker><marker id="my-svg_flowchart-v2-circleEnd" class="marker flowchart-v2" viewBox="0 0 10 10" refX="11" refY="5" markerUnits="userSpaceOnUse" markerWidth="11" markerHeight="11" orient="auto"><circle cx="5" cy="5" r="5" class="arrowMarkerPath" style="stroke-width: 1; stroke-dasharray: 1, 0;"/></marker><marker id="my-svg_flowchart-v2-circleStart" class="marker flowchart-v2" viewBox="0 0 10 10" refX="-1" refY="5" markerUnits="userSpaceOnUse" markerWidth="11" markerHeight="11" orient="auto"><circle cx="5" cy="5" r="5" class="arrowMarkerPath" style="stroke-width: 1; stroke-dasharray: 1, 0;"/></marker><marker id="my-svg_flowchart-v2-circleEnd-margin" class="marker flowchart-v2" viewBox="0 0 10 10" refY="5" refX="12.25" markerUnits="userSpaceOnUse" markerWidth="14" markerHeight="14" orient="auto"><circle cx="5" cy="5" r="5" class="arrowMarkerPath" style="stroke-width: 0; stroke-dasharray: 1, 0;"/></marker><marker id="my-svg_flowchart-v2-circleStart-margin" class="marker flowchart-v2" viewBox="0 0 10 10" refX="-2" refY="5" markerUnits="userSpaceOnUse" markerWidth="14" markerHeight="14" orient="auto"><circle cx="5" cy="5" r="5" class="arrowMarkerPath" style="stroke-width: 0; stroke-dasharray: 1, 0;"/></marker><marker id="my-svg_flowchart-v2-crossEnd" class="marker cross flowchart-v2" viewBox="0 0 11 11" refX="12" refY="5.2" markerUnits="userSpaceOnUse" markerWidth="11" markerHeight="11" orient="auto"><path d="M 1,1 l 9,9 M 10,1 l -9,9" class="arrowMarkerPath" style="stroke-width: 2; stroke-dasharray: 1, 0;"/></marker><marker id="my-svg_flowchart-v2-crossStart" class="marker cross flowchart-v2" viewBox="0 0 11 11" refX="-1" refY="5.2" markerUnits="userSpaceOnUse" markerWidth="11" markerHeight="11" orient="auto"><path d="M 1,1 l 9,9 M 10,1 l -9,9" class="arrowMarkerPath" style="stroke-width: 2; stroke-dasharray: 1, 0;"/></marker><marker id="my-svg_flowchart-v2-crossEnd-margin" class="marker cross flowchart-v2" viewBox="0 0 15 15" refX="17.7" refY="7.5" markerUnits="userSpaceOnUse" markerWidth="12" markerHeight="12" orient="auto"><path d="M 1,1 L 14,14 M 1,14 L 14,1" class="arrowMarkerPath" style="stroke-width: 2.5;"/></marker><marker id="my-svg_flowchart-v2-crossStart-margin" class="marker cross flowchart-v2" viewBox="0 0 15 15" refX="-3.5" refY="7.5" markerUnits="userSpaceOnUse" markerWidth="12" markerHeight="12" orient="auto"><path d="M 1,1 L 14,14 M 1,14 L 14,1" class="arrowMarkerPath" style="stroke-width: 2.5; stroke-dasharray: 1, 0;"/></marker><g class="root"><g class="clusters"><g class="cluster" id="my-svg-APPS" data-look="classic"><rect style="" x="56.51171875" y="598" width="1014.953125" height="104"/><g class="cluster-label" transform="translate(506.12109375, 598)"><foreignObject width="115.734375" height="24"><div xmlns="http://www.w3.org/1999/xhtml" style="display: table-cell; white-space: nowrap; line-height: 1.5;"><span class="nodeLabel"><p>Your application</p></span></div></foreignObject></g></g><g class="cluster" id="my-svg-MUX" data-look="classic"><rect style="" x="8" y="340" width="1140.1328125" height="208"/><g class="cluster-label" transform="translate(461.85546875, 340)"><foreignObject width="232.421875" height="24"><div xmlns="http://www.w3.org/1999/xhtml" style="display: table-cell; white-space: nowrap; line-height: 1.5;"><span class="nodeLabel"><p>llm-stream-mux · generic over T</p></span></div></foreignObject></g></g><g class="cluster" id="my-svg-OPTIONAL_PARSE" data-look="classic"><rect style="" x="304.578125" y="162" width="519.125" height="128"/><g class="cluster-label" transform="translate(428.5625, 162)"><foreignObject width="271.15625" height="24"><div xmlns="http://www.w3.org/1999/xhtml" style="display: table-cell; white-space: nowrap; line-height: 1.5;"><span class="nodeLabel"><p>Optional · userland · no npm coupling</p></span></div></foreignObject></g></g><g class="cluster" id="my-svg-PROVIDERS" data-look="classic"><rect style="" x="181.12109375" y="8" width="982.67578125" height="104"/><g class="cluster-label" transform="translate(566.443359375, 8)"><foreignObject width="212.03125" height="24"><div xmlns="http://www.w3.org/1999/xhtml" style="display: table-cell; white-space: nowrap; line-height: 1.5;"><span class="nodeLabel"><p>Your HTTP layer · fetch / SDK</p></span></div></foreignObject></g></g></g><g class="edgePaths"><path d="M296.891,419L296.891,423.167C296.891,427.333,296.891,435.667,311.937,445.113C326.982,454.559,357.074,465.117,372.12,470.396L387.166,475.676" id="my-svg-L_RACE_TAG_0" class="edge-thickness-normal edge-pattern-solid edge-thickness-normal edge-pattern-solid flowchart-link" style=";" data-edge="true" data-et="edge" data-id="L_RACE_TAG_0" data-points="W3sieCI6Mjk2Ljg5MDYyNSwieSI6NDE5fSx7IngiOjI5Ni44OTA2MjUsInkiOjQ0NH0seyJ4IjozOTAuOTQwNDI5Njg3NSwieSI6NDc3fV0=" data-look="classic" marker-end="url(#my-svg_flowchart-v2-pointEnd)"/><path d="M1048.719,419L1048.719,423.167C1048.719,427.333,1048.719,435.667,964.463,447.199C880.207,458.732,711.696,473.464,627.44,480.83L543.184,488.196" id="my-svg-L_FB_TAG_0" class="edge-thickness-normal edge-pattern-solid edge-thickness-normal edge-pattern-solid flowchart-link" style=";" data-edge="true" data-et="edge" data-id="L_FB_TAG_0" data-points="W3sieCI6MTA0OC43MTg3NSwieSI6NDE5fSx7IngiOjEwNDguNzE4NzUsInkiOjQ0NH0seyJ4Ijo1MzkuMTk5MjY1NTE2MjQ2MSwieSI6NDg4LjU0Mzk3OTA5NDY5ODJ9XQ==" data-look="classic" marker-end="url(#my-svg_flowchart-v2-pointEnd)"/><path d="M594.34,413.888L569.712,418.907C545.083,423.926,495.827,433.963,471.272,443.815C446.717,453.667,446.863,463.334,446.936,468.167L447.01,473" id="my-svg-L_MRG_TAG_0" class="edge-thickness-normal edge-pattern-solid edge-thickness-normal edge-pattern-solid flowchart-link" style=";" data-edge="true" data-et="edge" data-id="L_MRG_TAG_0" data-points="W3sieCI6NTk0LjMzOTg0Mzc1LCJ5Ijo0MTMuODg4Mjg1MDg4ODYwNjR9LHsieCI6NDQ2LjU3MDMxMjUsInkiOjQ0NH0seyJ4Ijo0NDcuMDcwMzEyNSwieSI6NDc3fV0=" data-look="classic" marker-end="url(#my-svg_flowchart-v2-pointEnd)"/><path d="M280.67,87L277.448,91.167C274.225,95.333,267.781,103.667,264.558,112C261.336,120.333,261.336,128.667,261.336,137C261.336,145.333,261.336,153.667,261.336,168.5C261.336,183.333,261.336,204.667,261.336,226C261.336,247.333,261.336,268.667,261.336,283.5C261.336,298.333,261.336,306.667,261.336,315C261.336,323.333,261.336,331.667,263.809,339.45C266.281,347.233,271.227,354.465,273.699,358.082L276.172,361.698" id="my-svg-L_PA_RACE_0" class="edge-thickness-normal edge-pattern-solid edge-thickness-normal edge-pattern-solid flowchart-link" style=";" data-edge="true" data-et="edge" data-id="L_PA_RACE_0" data-points="W3sieCI6MjgwLjY2OTk5Njk5NTE5MjMsInkiOjg3fSx7IngiOjI2MS4zMzU5Mzc1LCJ5IjoxMTJ9LHsieCI6MjYxLjMzNTkzNzUsInkiOjEzN30seyJ4IjoyNjEuMzM1OTM3NSwieSI6MTYyfSx7IngiOjI2MS4zMzU5Mzc1LCJ5IjoyMjZ9LHsieCI6MjYxLjMzNTkzNzUsInkiOjI5MH0seyJ4IjoyNjEuMzM1OTM3NSwieSI6MzE1fSx7IngiOjI2MS4zMzU5Mzc1LCJ5IjozNDB9LHsieCI6Mjc4LjQyOTUzNzI1OTYxNTM2LCJ5IjozNjV9XQ==" data-look="classic" marker-end="url(#my-svg_flowchart-v2-pointEnd)"/><path d="M818.511,87L817.71,91.167C816.908,95.333,815.306,103.667,814.504,112C813.703,120.333,813.703,128.667,830.092,137C846.482,145.333,879.26,153.667,895.65,168.5C912.039,183.333,912.039,204.667,912.039,226C912.039,247.333,912.039,268.667,912.039,283.5C912.039,298.333,912.039,306.667,912.039,315C912.039,323.333,912.039,331.667,818.765,343.718C725.49,355.769,538.941,371.539,445.667,379.424L352.392,387.308" id="my-svg-L_PB_RACE_0" class="edge-thickness-normal edge-pattern-solid edge-thickness-normal edge-pattern-solid flowchart-link" style=";" data-edge="true" data-et="edge" data-id="L_PB_RACE_0" data-points="W3sieCI6ODE4LjUxMDgxNzMwNzY5MjMsInkiOjg3fSx7IngiOjgxMy43MDMxMjUsInkiOjExMn0seyJ4Ijo4MTMuNzAzMTI1LCJ5IjoxMzd9LHsieCI6OTEyLjAzOTA2MjUsInkiOjE2Mn0seyJ4Ijo5MTIuMDM5MDYyNSwieSI6MjI2fSx7IngiOjkxMi4wMzkwNjI1LCJ5IjoyOTB9LHsieCI6OTEyLjAzOTA2MjUsInkiOjMxNX0seyJ4Ijo5MTIuMDM5MDYyNSwieSI6MzQwfSx7IngiOjM0OC40MDYyNSwieSI6Mzg3LjY0NTI1ODM4NTI5ODN9XQ==" data-look="classic" marker-end="url(#my-svg_flowchart-v2-pointEnd)"/><path d="M355.792,87L364.163,91.167C372.533,95.333,389.274,103.667,397.645,112C406.016,120.333,406.016,128.667,406.016,137C406.016,145.333,406.016,153.667,408.326,161.439C410.636,169.211,415.256,176.421,417.566,180.027L419.876,183.632" id="my-svg-L_PA_ASM_0" class="edge-thickness-normal edge-pattern-solid edge-thickness-normal edge-pattern-solid flowchart-link" style=";" data-edge="true" data-et="edge" data-id="L_PA_ASM_0" data-points="W3sieCI6MzU1Ljc5MjE0MjQyNzg4NDY0LCJ5Ijo4N30seyJ4Ijo0MDYuMDE1NjI1LCJ5IjoxMTJ9LHsieCI6NDA2LjAxNTYyNSwieSI6MTM3fSx7IngiOjQwNi4wMTU2MjUsInkiOjE2Mn0seyJ4Ijo0MjIuMDM0MzAxNzU3ODEyNSwieSI6MTg3fV0=" data-look="classic" marker-end="url(#my-svg_flowchart-v2-pointEnd)"/><path d="M828.895,87L829.697,91.167C830.498,95.333,832.101,103.667,832.902,112C833.703,120.333,833.703,128.667,798.98,137C764.257,145.333,694.81,153.667,648.898,161.848C602.987,170.03,580.61,178.06,569.422,182.075L558.234,186.09" id="my-svg-L_PB_ASM_0" class="edge-thickness-normal edge-pattern-solid edge-thickness-normal edge-pattern-solid flowchart-link" style=";" data-edge="true" data-et="edge" data-id="L_PB_ASM_0" data-points="W3sieCI6ODI4Ljg5NTQzMjY5MjMwNzcsInkiOjg3fSx7IngiOjgzMy43MDMxMjUsInkiOjExMn0seyJ4Ijo4MzMuNzAzMTI1LCJ5IjoxMzd9LHsieCI6NjI1LjM2MzI4MTI1LCJ5IjoxNjJ9LHsieCI6NTU0LjQ2ODc1LCJ5IjoxODcuNDQxNTk0NTY3OTU1MzJ9XQ==" data-look="classic" marker-end="url(#my-svg_flowchart-v2-pointEnd)"/><path d="M447.023,265L447.023,269.167C447.023,273.333,447.023,281.667,447.023,290C447.023,298.333,447.023,306.667,447.023,315C447.023,323.333,447.023,331.667,470.923,340.712C494.823,349.758,542.622,359.515,566.521,364.394L590.421,369.273" id="my-svg-L_ASM_MRG_0" class="edge-thickness-normal edge-pattern-solid edge-thickness-normal edge-pattern-solid flowchart-link" style=";" data-edge="true" data-et="edge" data-id="L_ASM_MRG_0" data-points="W3sieCI6NDQ3LjAyMzQzNzUsInkiOjI2NX0seyJ4Ijo0NDcuMDIzNDM3NSwieSI6MjkwfSx7IngiOjQ0Ny4wMjM0Mzc1LCJ5IjozMTV9LHsieCI6NDQ3LjAyMzQzNzUsInkiOjM0MH0seyJ4Ijo1OTQuMzM5ODQzNzUsInkiOjM3MC4wNzI3NzkxMzIzNTV9XQ==" data-look="classic" marker-end="url(#my-svg_flowchart-v2-pointEnd)"/><path d="M1048.719,87L1048.719,91.167C1048.719,95.333,1048.719,103.667,1048.719,112C1048.719,120.333,1048.719,128.667,1048.719,137C1048.719,145.333,1048.719,153.667,1048.719,168.5C1048.719,183.333,1048.719,204.667,1048.719,226C1048.719,247.333,1048.719,268.667,1048.719,283.5C1048.719,298.333,1048.719,306.667,1048.719,315C1048.719,323.333,1048.719,331.667,1048.719,339.333C1048.719,347,1048.719,354,1048.719,357.5L1048.719,361" id="my-svg-L_PC_FB_0" class="edge-thickness-normal edge-pattern-solid edge-thickness-normal edge-pattern-solid flowchart-link" style=";" data-edge="true" data-et="edge" data-id="L_PC_FB_0" data-points="W3sieCI6MTA0OC43MTg3NSwieSI6ODd9LHsieCI6MTA0OC43MTg3NSwieSI6MTEyfSx7IngiOjEwNDguNzE4NzUsInkiOjEzN30seyJ4IjoxMDQ4LjcxODc1LCJ5IjoxNjJ9LHsieCI6MTA0OC43MTg3NSwieSI6MjI2fSx7IngiOjEwNDguNzE4NzUsInkiOjI5MH0seyJ4IjoxMDQ4LjcxODc1LCJ5IjozMTV9LHsieCI6MTA0OC43MTg3NSwieSI6MzQwfSx7IngiOjEwNDguNzE4NzUsInkiOjM2NX1d" data-look="classic" marker-end="url(#my-svg_flowchart-v2-pointEnd)"/><path d="M696.586,265L696.586,269.167C696.586,273.333,696.586,281.667,696.586,290C696.586,298.333,696.586,306.667,696.586,315C696.586,323.333,696.586,331.667,696.934,339.337C697.282,347.007,697.979,354.013,698.327,357.516L698.675,361.02" id="my-svg-L_GRD_MRG_0" class="edge-thickness-normal edge-pattern-solid edge-thickness-normal edge-pattern-solid flowchart-link" style=";" data-edge="true" data-et="edge" data-id="L_GRD_MRG_0" data-points="W3sieCI6Njk2LjU4NTkzNzUsInkiOjI2NX0seyJ4Ijo2OTYuNTg1OTM3NSwieSI6MjkwfSx7IngiOjY5Ni41ODU5Mzc1LCJ5IjozMTV9LHsieCI6Njk2LjU4NTkzNzUsInkiOjM0MH0seyJ4Ijo2OTkuMDcwNTM3ODYwNTc2OSwieSI6MzY1fV0=" data-look="classic" marker-end="url(#my-svg_flowchart-v2-pointEnd)"/><path d="M387.551,516L370.934,521.333C354.318,526.667,321.085,537.333,304.468,546.833C287.852,556.333,287.852,564.667,287.852,573C287.852,581.333,287.852,589.667,280.586,597.688C273.321,605.708,258.791,613.417,251.526,617.271L244.26,621.125" id="my-svg-L_TAG_UI_0" class="edge-thickness-normal edge-pattern-solid edge-thickness-normal edge-pattern-solid flowchart-link" style=";" data-edge="true" data-et="edge" data-id="L_TAG_UI_0" data-points="W3sieCI6Mzg3LjU1MDc4MTI1LCJ5Ijo1MTZ9LHsieCI6Mjg3Ljg1MTU2MjUsInkiOjU0OH0seyJ4IjoyODcuODUxNTYyNSwieSI6NTczfSx7IngiOjI4Ny44NTE1NjI1LCJ5Ijo1OTh9LHsieCI6MjQwLjcyNjc4Nzg2MDU3NjksInkiOjYyM31d" data-look="classic" marker-end="url(#my-svg_flowchart-v2-pointEnd)"/><path d="M443.421,516L442.324,521.333C441.228,526.667,439.034,537.333,437.937,546.833C436.84,556.333,436.84,564.667,436.84,573C436.84,581.333,436.84,589.667,436.84,597.333C436.84,605,436.84,612,436.84,615.5L436.84,619" id="my-svg-L_TAG_AGENT_0" class="edge-thickness-normal edge-pattern-solid edge-thickness-normal edge-pattern-solid flowchart-link" style=";" data-edge="true" data-et="edge" data-id="L_TAG_AGENT_0" data-points="W3sieCI6NDQzLjQyMTM4NjcxODc1LCJ5Ijo1MTZ9LHsieCI6NDM2LjgzOTg0Mzc1LCJ5Ijo1NDh9LHsieCI6NDM2LjgzOTg0Mzc1LCJ5Ijo1NzN9LHsieCI6NDM2LjgzOTg0Mzc1LCJ5Ijo1OTh9LHsieCI6NDM2LjgzOTg0Mzc1LCJ5Ijo2MjN9XQ==" data-look="classic" marker-end="url(#my-svg_flowchart-v2-pointEnd)"/><path d="M526.926,515.19L550.564,520.658C574.202,526.126,621.478,537.063,645.116,546.698C668.754,556.333,668.754,564.667,668.754,573C668.754,581.333,668.754,589.667,668.754,597.333C668.754,605,668.754,612,668.754,615.5L668.754,619" id="my-svg-L_TAG_ROUTE_0" class="edge-thickness-normal edge-pattern-solid edge-thickness-normal edge-pattern-solid flowchart-link" style=";" data-edge="true" data-et="edge" data-id="L_TAG_ROUTE_0" data-points="W3sieCI6NTI2LjkyNjQ1ODgxNjI3OCwieSI6NTE1LjE4OTU4NzAxMzg3Njd9LHsieCI6NjY4Ljc1MzkwNjI1LCJ5Ijo1NDh9LHsieCI6NjY4Ljc1MzkwNjI1LCJ5Ijo1NzN9LHsieCI6NjY4Ljc1MzkwNjI1LCJ5Ijo1OTh9LHsieCI6NjY4Ljc1MzkwNjI1LCJ5Ijo2MjN9XQ==" data-look="classic" marker-end="url(#my-svg_flowchart-v2-pointEnd)"/><path d="M809.168,417.684L827.51,422.07C845.853,426.456,882.538,435.228,900.88,448.281C919.223,461.333,919.223,478.667,919.223,496C919.223,513.333,919.223,530.667,919.223,543.5C919.223,556.333,919.223,564.667,919.223,573C919.223,581.333,919.223,589.667,919.223,597.333C919.223,605,919.223,612,919.223,615.5L919.223,619" id="my-svg-L_MRG_MET_0" class="edge-thickness-normal edge-pattern-solid edge-thickness-normal edge-pattern-solid flowchart-link" style=";" data-edge="true" data-et="edge" data-id="L_MRG_MET_0" data-points="W3sieCI6ODA5LjE2Nzk2ODc1LCJ5Ijo0MTcuNjg0MjkzNzIwMzYyMX0seyJ4Ijo5MTkuMjIyNjU2MjUsInkiOjQ0NH0seyJ4Ijo5MTkuMjIyNjU2MjUsInkiOjQ5Nn0seyJ4Ijo5MTkuMjIyNjU2MjUsInkiOjU0OH0seyJ4Ijo5MTkuMjIyNjU2MjUsInkiOjU3M30seyJ4Ijo5MTkuMjIyNjU2MjUsInkiOjU5OH0seyJ4Ijo5MTkuMjIyNjU2MjUsInkiOjYyM31d" data-look="classic" marker-end="url(#my-svg_flowchart-v2-pointEnd)"/><path d="M143.172,523L143.172,527.167C143.172,531.333,143.172,539.667,143.172,548C143.172,556.333,143.172,564.667,143.172,573C143.172,581.333,143.172,589.667,146.465,597.504C149.759,605.341,156.346,612.682,159.64,616.352L162.933,620.023" id="my-svg-L_TEE_UI_0" class="edge-thickness-normal edge-pattern-solid edge-thickness-normal edge-pattern-solid flowchart-link" style=";" data-edge="true" data-et="edge" data-id="L_TEE_UI_0" data-points="W3sieCI6MTQzLjE3MTg3NSwieSI6NTIzfSx7IngiOjE0My4xNzE4NzUsInkiOjU0OH0seyJ4IjoxNDMuMTcxODc1LCJ5Ijo1NzN9LHsieCI6MTQzLjE3MTg3NSwieSI6NTk4fSx7IngiOjE2NS42MDQ2NDI0Mjc4ODQ2LCJ5Ijo2MjN9XQ==" data-look="classic" marker-end="url(#my-svg_flowchart-v2-pointEnd)"/></g><g class="edgeLabels"><g class="edgeLabel"><g class="label" data-id="L_RACE_TAG_0" transform="translate(0, 0)"><foreignObject width="0" height="0"><div xmlns="http://www.w3.org/1999/xhtml" class="labelBkg" style="display: table-cell; white-space: nowrap; line-height: 1.5; max-width: 200px; text-align: center;"><span class="edgeLabel"></span></div></foreignObject></g></g><g class="edgeLabel"><g class="label" data-id="L_FB_TAG_0" transform="translate(0, 0)"><foreignObject width="0" height="0"><div xmlns="http://www.w3.org/1999/xhtml" class="labelBkg" style="display: table-cell; white-space: nowrap; line-height: 1.5; max-width: 200px; text-align: center;"><span class="edgeLabel"></span></div></foreignObject></g></g><g class="edgeLabel"><g class="label" data-id="L_MRG_TAG_0" transform="translate(0, 0)"><foreignObject width="0" height="0"><div xmlns="http://www.w3.org/1999/xhtml" class="labelBkg" style="display: table-cell; white-space: nowrap; line-height: 1.5; max-width: 200px; text-align: center;"><span class="edgeLabel"></span></div></foreignObject></g></g><g class="edgeLabel"><g class="label" data-id="L_PA_RACE_0" transform="translate(0, 0)"><foreignObject width="0" height="0"><div xmlns="http://www.w3.org/1999/xhtml" class="labelBkg" style="display: table-cell; white-space: nowrap; line-height: 1.5; max-width: 200px; text-align: center;"><span class="edgeLabel"></span></div></foreignObject></g></g><g class="edgeLabel"><g class="label" data-id="L_PB_RACE_0" transform="translate(0, 0)"><foreignObject width="0" height="0"><div xmlns="http://www.w3.org/1999/xhtml" class="labelBkg" style="display: table-cell; white-space: nowrap; line-height: 1.5; max-width: 200px; text-align: center;"><span class="edgeLabel"></span></div></foreignObject></g></g><g class="edgeLabel"><g class="label" data-id="L_PA_ASM_0" transform="translate(0, 0)"><foreignObject width="0" height="0"><div xmlns="http://www.w3.org/1999/xhtml" class="labelBkg" style="display: table-cell; white-space: nowrap; line-height: 1.5; max-width: 200px; text-align: center;"><span class="edgeLabel"></span></div></foreignObject></g></g><g class="edgeLabel"><g class="label" data-id="L_PB_ASM_0" transform="translate(0, 0)"><foreignObject width="0" height="0"><div xmlns="http://www.w3.org/1999/xhtml" class="labelBkg" style="display: table-cell; white-space: nowrap; line-height: 1.5; max-width: 200px; text-align: center;"><span class="edgeLabel"></span></div></foreignObject></g></g><g class="edgeLabel"><g class="label" data-id="L_ASM_MRG_0" transform="translate(0, 0)"><foreignObject width="0" height="0"><div xmlns="http://www.w3.org/1999/xhtml" class="labelBkg" style="display: table-cell; white-space: nowrap; line-height: 1.5; max-width: 200px; text-align: center;"><span class="edgeLabel"></span></div></foreignObject></g></g><g class="edgeLabel"><g class="label" data-id="L_PC_FB_0" transform="translate(0, 0)"><foreignObject width="0" height="0"><div xmlns="http://www.w3.org/1999/xhtml" class="labelBkg" style="display: table-cell; white-space: nowrap; line-height: 1.5; max-width: 200px; text-align: center;"><span class="edgeLabel"></span></div></foreignObject></g></g><g class="edgeLabel"><g class="label" data-id="L_GRD_MRG_0" transform="translate(0, 0)"><foreignObject width="0" height="0"><div xmlns="http://www.w3.org/1999/xhtml" class="labelBkg" style="display: table-cell; white-space: nowrap; line-height: 1.5; max-width: 200px; text-align: center;"><span class="edgeLabel"></span></div></foreignObject></g></g><g class="edgeLabel"><g class="label" data-id="L_TAG_UI_0" transform="translate(0, 0)"><foreignObject width="0" height="0"><div xmlns="http://www.w3.org/1999/xhtml" class="labelBkg" style="display: table-cell; white-space: nowrap; line-height: 1.5; max-width: 200px; text-align: center;"><span class="edgeLabel"></span></div></foreignObject></g></g><g class="edgeLabel"><g class="label" data-id="L_TAG_AGENT_0" transform="translate(0, 0)"><foreignObject width="0" height="0"><div xmlns="http://www.w3.org/1999/xhtml" class="labelBkg" style="display: table-cell; white-space: nowrap; line-height: 1.5; max-width: 200px; text-align: center;"><span class="edgeLabel"></span></div></foreignObject></g></g><g class="edgeLabel"><g class="label" data-id="L_TAG_ROUTE_0" transform="translate(0, 0)"><foreignObject width="0" height="0"><div xmlns="http://www.w3.org/1999/xhtml" class="labelBkg" style="display: table-cell; white-space: nowrap; line-height: 1.5; max-width: 200px; text-align: center;"><span class="edgeLabel"></span></div></foreignObject></g></g><g class="edgeLabel"><g class="label" data-id="L_MRG_MET_0" transform="translate(0, 0)"><foreignObject width="0" height="0"><div xmlns="http://www.w3.org/1999/xhtml" class="labelBkg" style="display: table-cell; white-space: nowrap; line-height: 1.5; max-width: 200px; text-align: center;"><span class="edgeLabel"></span></div></foreignObject></g></g><g class="edgeLabel"><g class="label" data-id="L_TEE_UI_0" transform="translate(0, 0)"><foreignObject width="0" height="0"><div xmlns="http://www.w3.org/1999/xhtml" class="labelBkg" style="display: table-cell; white-space: nowrap; line-height: 1.5; max-width: 200px; text-align: center;"><span class="edgeLabel"></span></div></foreignObject></g></g></g><g class="nodes"><g class="node default provider" id="my-svg-flowchart-PA-0" data-look="classic" transform="translate(301.55078125, 60)"><rect class="basic label-container" style="fill:#0f172a !important;stroke:#38bdf8 !important;stroke-width:2px !important" x="-85.4296875" y="-27" width="170.859375" height="54"/><g class="label" style="color:#e0f2fe !important" transform="translate(-55.4296875, -12)"><rect/><foreignObject width="110.859375" height="24"><div style="color: rgb(224, 242, 254) !important; display: table-cell; white-space: nowrap; line-height: 1.5; max-width: 200px; text-align: center;" xmlns="http://www.w3.org/1999/xhtml"><span style="color:#e0f2fe !important" class="nodeLabel"><p>Provider A body</p></span></div></foreignObject></g></g><g class="node default provider" id="my-svg-flowchart-PB-1" data-look="classic" transform="translate(823.703125, 60)"><rect class="basic label-container" style="fill:#0f172a !important;stroke:#38bdf8 !important;stroke-width:2px !important" x="-86.1171875" y="-27" width="172.234375" height="54"/><g class="label" style="color:#e0f2fe !important" transform="translate(-56.1171875, -12)"><rect/><foreignObject width="112.234375" height="24"><div style="color: rgb(224, 242, 254) !important; display: table-cell; white-space: nowrap; line-height: 1.5; max-width: 200px; text-align: center;" xmlns="http://www.w3.org/1999/xhtml"><span style="color:#e0f2fe !important" class="nodeLabel"><p>Provider B body</p></span></div></foreignObject></g></g><g class="node default provider" id="my-svg-flowchart-PC-2" data-look="classic" transform="translate(1048.71875, 60)"><rect class="basic label-container" style="fill:#0f172a !important;stroke:#38bdf8 !important;stroke-width:2px !important" x="-80.078125" y="-27" width="160.15625" height="54"/><g class="label" style="color:#e0f2fe !important" transform="translate(-50.078125, -12)"><rect/><foreignObject width="100.15625" height="24"><div style="color: rgb(224, 242, 254) !important; display: table-cell; white-space: nowrap; line-height: 1.5; max-width: 200px; text-align: center;" xmlns="http://www.w3.org/1999/xhtml"><span style="color:#e0f2fe !important" class="nodeLabel"><p>Backup model</p></span></div></foreignObject></g></g><g class="node default optional" id="my-svg-flowchart-ASM-3" data-look="classic" transform="translate(447.0234375, 226)"><rect class="basic label-container" style="fill:#312e81 !important;stroke:#a5b4fc !important;stroke-width:2px !important" x="-107.4453125" y="-39" width="214.890625" height="78"/><g class="label" style="color:#eef2ff !important" transform="translate(-77.4453125, -24)"><rect/><foreignObject width="154.890625" height="48"><div style="color: rgb(238, 242, 255) !important; display: table-cell; white-space: nowrap; line-height: 1.5; max-width: 200px; text-align: center;" xmlns="http://www.w3.org/1999/xhtml"><span style="color:#eef2ff !important" class="nodeLabel"><p>llm-stream-assemble<br />bytes → StreamEvent</p></span></div></foreignObject></g></g><g class="node default optional" id="my-svg-flowchart-GRD-4" data-look="classic" transform="translate(696.5859375, 226)"><rect class="basic label-container" style="fill:#312e81 !important;stroke:#a5b4fc !important;stroke-width:2px !important" x="-92.1171875" y="-39" width="184.234375" height="78"/><g class="label" style="color:#eef2ff !important" transform="translate(-62.1171875, -24)"><rect/><foreignObject width="124.234375" height="48"><div style="color: rgb(238, 242, 255) !important; display: table-cell; white-space: nowrap; line-height: 1.5; max-width: 200px; text-align: center;" xmlns="http://www.w3.org/1999/xhtml"><span style="color:#eef2ff !important" class="nodeLabel"><p>llm-stream-guard<br />filter / redact</p></span></div></foreignObject></g></g><g class="node default mux" id="my-svg-flowchart-RACE-5" data-look="classic" transform="translate(296.890625, 392)"><rect class="basic label-container" style="fill:#042f2e !important;stroke:#2dd4bf !important;stroke-width:2px !important" x="-51.515625" y="-27" width="103.03125" height="54"/><g class="label" style="color:#ccfbf1 !important" transform="translate(-21.515625, -12)"><rect/><foreignObject width="43.03125" height="24"><div style="color: rgb(204, 251, 241) !important; display: table-cell; white-space: nowrap; line-height: 1.5; max-width: 200px; text-align: center;" xmlns="http://www.w3.org/1999/xhtml"><span style="color:#ccfbf1 !important" class="nodeLabel"><p>race()</p></span></div></foreignObject></g></g><g class="node default mux" id="my-svg-flowchart-FB-6" data-look="classic" transform="translate(1048.71875, 392)"><rect class="basic label-container" style="fill:#042f2e !important;stroke:#2dd4bf !important;stroke-width:2px !important" x="-64.4140625" y="-27" width="128.828125" height="54"/><g class="label" style="color:#ccfbf1 !important" transform="translate(-34.4140625, -12)"><rect/><foreignObject width="68.828125" height="24"><div style="color: rgb(204, 251, 241) !important; display: table-cell; white-space: nowrap; line-height: 1.5; max-width: 200px; text-align: center;" xmlns="http://www.w3.org/1999/xhtml"><span style="color:#ccfbf1 !important" class="nodeLabel"><p>fallback()</p></span></div></foreignObject></g></g><g class="node default mux" id="my-svg-flowchart-MRG-7" data-look="classic" transform="translate(701.75390625, 392)"><rect class="basic label-container" style="fill:#042f2e !important;stroke:#2dd4bf !important;stroke-width:2px !important" x="-107.4140625" y="-27" width="214.828125" height="54"/><g class="label" style="color:#ccfbf1 !important" transform="translate(-77.4140625, -12)"><rect/><foreignObject width="154.828125" height="24"><div style="color: rgb(204, 251, 241) !important; display: table-cell; white-space: nowrap; line-height: 1.5; max-width: 200px; text-align: center;" xmlns="http://www.w3.org/1999/xhtml"><span style="color:#ccfbf1 !important" class="nodeLabel"><p>merge() / ensemble()</p></span></div></foreignObject></g></g><g class="node default mux" id="my-svg-flowchart-TEE-8" data-look="classic" transform="translate(143.171875, 496)"><rect class="basic label-container" style="fill:#042f2e !important;stroke:#2dd4bf !important;stroke-width:2px !important" x="-47.7734375" y="-27" width="95.546875" height="54"/><g class="label" style="color:#ccfbf1 !important" transform="translate(-17.7734375, -12)"><rect/><foreignObject width="35.546875" height="24"><div style="color: rgb(204, 251, 241) !important; display: table-cell; white-space: nowrap; line-height: 1.5; max-width: 200px; text-align: center;" xmlns="http://www.w3.org/1999/xhtml"><span style="color:#ccfbf1 !important" class="nodeLabel"><p>tee()</p></span></div></foreignObject></g></g><g class="node default io" id="my-svg-flowchart-TAG-9" data-look="classic" transform="translate(446.5703125, 496)"><g class="basic label-container outer-path"><path d="M-74.328125 -19.5 C-31.826833617688678 -19.5, 10.674457764622645 -19.5, 74.328125 -19.5 C74.328125 -19.5, 74.328125 -19.5, 74.328125 -19.5 C74.67245423260715 -19.48895803170648, 75.0167834652143 -19.477916063412962, 75.5774942896239 -19.45993515863156 C75.84458353679271 -19.434169380179, 76.11167278396154 -19.408403601726437, 76.82172965284786 -19.3399052695533 C77.07622095368839 -19.298761089642916, 77.33071225452892 -19.257616909732533, 78.05571825967675 -19.140403561325776 C78.33372541943109 -19.07695024127811, 78.61173257918543 -19.01349692123044, 79.27438938623538 -18.862249829261074 C79.69505462700403 -18.73739859391785, 80.11571986777267 -18.612547358574627, 80.4727352514606 -18.50658706670804 C80.90377349558563 -18.347961008396183, 81.33481173971064 -18.189334950084326, 81.6458315951478 -18.074876768247425 C82.03697866732529 -17.90172756236009, 82.42812573950279 -17.728578356472752, 82.78885791279238 -17.568892924097174 C83.11226644083374 -17.400170902171045, 83.4356749688751 -17.231448880244916, 83.89711726407678 -16.990714730406097 C84.21690385813835 -16.796858217811348, 84.53669045219992 -16.603001705216602, 84.9660555736057 -16.342718045390892 C85.31356241046866 -16.100312319323802, 85.66106924733162 -15.85790659325671, 85.99128034457871 -15.627565626425154 C86.35145797744649 -15.34033354894245, 86.71163561031425 -15.053101471459744, 86.96857870850187 -14.848196188198123 C87.28356659233573 -14.562132526222918, 87.5985544761696 -14.276068864247712, 87.89393473676799 -14.007812326905688 C88.21762228181719 -13.673578361400706, 88.5413098268664 -13.339344395895722, 88.76354594296865 -13.10986736009568 C88.96438102200685 -12.873955048417676, 89.16521610104505 -12.63804273673967, 89.57383890812658 -12.158051136245305 C89.80296239494602 -11.851046537486306, 90.03208588176547 -11.544041938727307, 90.32148396464063 -11.156274872382312 C90.54321157219711 -10.815641724976237, 90.7649391797536 -10.47500857757016, 91.00340887860425 -10.108655082055241 C91.12767810226063 -9.88800249182991, 91.25194732591702 -9.66734990160458, 91.6168114742735 -9.019496659696287 C91.82104791539696 -8.595395319743638, 92.02528435652042 -8.17129397979099, 92.15917114880834 -7.893275190886684 C92.32915061035187 -7.4734226345448365, 92.49913007189541 -7.0535700782029895, 92.62825922997033 -6.734618561215508 C92.72692796455631 -6.437444053370475, 92.8255966991423 -6.140269545525442, 93.02214813421489 -5.548287939305138 C93.09184290100534 -5.282511587630165, 93.16153766779578 -5.016735235955193, 93.33921928754556 -4.339158212148133 C93.39858756829497 -4.034314637990464, 93.4579558490444 -3.729471063832796, 93.57816977658177 -3.1121979531509023 C93.63144570092719 -2.6990004044490656, 93.68472162527262 -2.285802855747229, 93.73801770250937 -1.872449005199798 C93.76932791598546 -1.384767157160233, 93.80063812946155 -0.8970853091206681, 93.81810621591342 -0.6250057626472757 C93.81810621591342 -0.24413124923103052, 93.81810621591342 0.13674326418521465, 93.81810621591342 0.625005762647271 C93.79888007062073 0.9244684946460331, 93.77965392532805 1.2239312266447953, 93.73801770250937 1.8724490051997846 C93.67457501685357 2.364497946970888, 93.61113233119775 2.856546888741991, 93.57816977658177 3.1121979531508885 C93.486375444065 3.583542449885444, 93.39458111154825 4.05488694662, 93.33921928754556 4.339158212148129 C93.25006974673994 4.67912404889538, 93.1609202059343 5.0190898856426305, 93.02214813421489 5.548287939305125 C92.90184059319483 5.9106350844539675, 92.7815330521748 6.27298222960281, 92.62825922997033 6.734618561215495 C92.51304805007717 7.019192403008224, 92.39783687018401 7.303766244800953, 92.15917114880834 7.893275190886679 C91.98679942289772 8.2512087679042, 91.81442769698708 8.609142344921723, 91.6168114742735 9.019496659696284 C91.44201921894027 9.32985800867556, 91.26722696360706 9.640219357654836, 91.00340887860425 10.108655082055236 C90.80777579184817 10.409200038151926, 90.61214270509211 10.709744994248616, 90.32148396464065 11.156274872382301 C90.04411139317051 11.527928848991191, 89.76673882170037 11.899582825600081, 89.57383890812659 12.158051136245302 C89.40791952032194 12.352949490241263, 89.24200013251729 12.547847844237225, 88.76354594296866 13.10986736009567 C88.47159593441806 13.411329713465637, 88.17964592586746 13.712792066835602, 87.89393473676799 14.007812326905684 C87.61892282725488 14.25757086670911, 87.34391091774175 14.507329406512534, 86.9685787085019 14.848196188198111 C86.68158184721143 15.077068547770022, 86.39458498592099 15.305940907341935, 85.99128034457871 15.627565626425152 C85.76056255041405 15.788504372022079, 85.5298447562494 15.949443117619005, 84.9660555736057 16.34271804539089 C84.62345910356106 16.550402038852283, 84.28086263351642 16.758086032313678, 83.89711726407678 16.990714730406093 C83.47915454748153 17.20876561193594, 83.06119183088626 17.426816493465793, 82.78885791279238 17.56889292409717 C82.53817287743696 17.679863752941653, 82.28748784208155 17.790834581786132, 81.6458315951478 18.07487676824742 C81.37170462111794 18.17575802869238, 81.09757764708807 18.27663928913734, 80.47273525146062 18.506587066708033 C80.1015430613156 18.616754960315507, 79.73035087117059 18.726922853922986, 79.27438938623541 18.86224982926107 C78.83931945645396 18.961551701637067, 78.40424952667252 19.060853574013063, 78.05571825967677 19.140403561325773 C77.78233542891515 19.184601977287794, 77.50895259815353 19.228800393249816, 76.82172965284788 19.3399052695533 C76.43593820710355 19.377122106342156, 76.05014676135922 19.414338943131018, 75.5774942896239 19.45993515863156 C75.10359377638034 19.475132225699888, 74.62969326313676 19.49032929276822, 74.328125 19.5 C74.328125 19.5, 74.328125 19.5, 74.328125 19.5 C36.26225640376721 19.5, -1.8036121924655788 19.5, -74.328125 19.5 C-74.65316081774964 19.489576733968608, -74.97819663549927 19.479153467937216, -75.5774942896239 19.45993515863156 C-75.95998821135194 19.423036430018698, -76.34248213307998 19.386137701405836, -76.82172965284786 19.3399052695533 C-77.22210460841796 19.275175751690877, -77.62247956398807 19.210446233828456, -78.05571825967675 19.140403561325773 C-78.53106358704338 19.031909092272493, -79.00640891441 18.92341462321921, -79.27438938623538 18.862249829261074 C-79.51673473538301 18.79032300173076, -79.75908008453062 18.71839617420044, -80.47273525146059 18.506587066708043 C-80.71833445275396 18.41620429033795, -80.96393365404734 18.325821513967863, -81.6458315951478 18.074876768247425 C-81.94675785629474 17.941665639098048, -82.24768411744168 17.808454509948668, -82.78885791279238 17.568892924097174 C-83.01165923219197 17.452657618477463, -83.23446055159157 17.33642231285775, -83.89711726407678 16.990714730406097 C-84.19580254525722 16.809649957684968, -84.49448782643766 16.62858518496384, -84.96605557360569 16.3427180453909 C-85.20071249370844 16.179031536061576, -85.43536941381117 16.015345026732252, -85.99128034457871 15.627565626425156 C-86.24766825145964 15.423103093456348, -86.50405615834059 15.21864056048754, -86.96857870850187 14.848196188198125 C-87.23474885145501 14.606467506844151, -87.50091899440815 14.364738825490177, -87.89393473676797 14.007812326905697 C-88.07901130109312 13.816705579171465, -88.26408786541826 13.625598831437234, -88.76354594296865 13.109867360095677 C-89.00477472171808 12.826506310270238, -89.24600350046751 12.543145260444799, -89.57383890812658 12.158051136245307 C-89.82493449682714 11.82160592266527, -90.0760300855277 11.485160709085235, -90.32148396464063 11.156274872382316 C-90.52809373287926 10.838866785876737, -90.73470350111788 10.52145869937116, -91.00340887860425 10.108655082055249 C-91.23332740323329 9.70041145980118, -91.46324592786233 9.292167837547112, -91.6168114742735 9.019496659696289 C-91.74480631455164 8.753712635207876, -91.87280115482977 8.487928610719463, -92.15917114880834 7.893275190886686 C-92.30105939665884 7.542808475473276, -92.44294764450936 7.192341760059866, -92.62825922997033 6.73461856121551 C-92.7205451417301 6.456668098758302, -92.81283105348987 6.1787176363010925, -93.02214813421489 5.5482879393051325 C-93.13763248973802 5.1078960404590985, -93.25311684526118 4.667504141613064, -93.33921928754556 4.339158212148136 C-93.40742037694132 3.988960032406267, -93.47562146633707 3.6387618526643988, -93.57816977658177 3.112197953150904 C-93.61607987868946 2.8181746874000932, -93.65398998079715 2.5241514216492824, -93.73801770250937 1.872449005199809 C-93.76483200520154 1.4547945966536378, -93.79164630789371 1.0371401881074664, -93.81810621591342 0.6250057626472781 C-93.81810621591342 0.24831085766568206, -93.81810621591342 -0.12838404731591402, -93.81810621591342 -0.6250057626472687 C-93.80150386649555 -0.8836007560058694, -93.78490151707767 -1.14219574936447, -93.73801770250937 -1.8724490051997822 C-93.69060440620922 -2.2401771684894176, -93.64319110990905 -2.6079053317790533, -93.57816977658177 -3.112197953150895 C-93.51878773602259 -3.417112181023618, -93.4594056954634 -3.72202640889634, -93.33921928754556 -4.339158212148126 C-93.22900037629242 -4.759470689934684, -93.11878146503928 -5.179783167721242, -93.02214813421489 -5.548287939305123 C-92.89200535158078 -5.940257265162561, -92.76186256894667 -6.33222659102, -92.62825922997033 -6.734618561215485 C-92.44377333462094 -7.190302289520618, -92.25928743927155 -7.645986017825752, -92.15917114880834 -7.893275190886676 C-92.01870214597558 -8.184962080824086, -91.87823314314282 -8.476648970761493, -91.6168114742735 -9.019496659696282 C-91.47492992105994 -9.27142172449214, -91.33304836784637 -9.523346789287997, -91.00340887860425 -10.108655082055243 C-90.80671747670985 -10.410825894401805, -90.61002607481545 -10.712996706748365, -90.32148396464063 -11.156274872382308 C-90.11581180303375 -11.431856831816152, -89.91013964142687 -11.707438791249995, -89.57383890812659 -12.158051136245302 C-89.31796669337454 -12.458613199234534, -89.06209447862248 -12.759175262223765, -88.76354594296866 -13.10986736009567 C-88.57814135156609 -13.301312822718872, -88.39273676016352 -13.492758285342072, -87.89393473676799 -14.007812326905677 C-87.62626759923212 -14.250900539131381, -87.35860046169626 -14.493988751357085, -86.9685787085019 -14.848196188198107 C-86.59522561513164 -15.145935344817813, -86.22187252176138 -15.443674501437519, -85.99128034457871 -15.627565626425149 C-85.75929642110238 -15.789387569020056, -85.52731249762603 -15.95120951161496, -84.96605557360571 -16.342718045390885 C-84.56026259968525 -16.588712130885686, -84.15446962576478 -16.834706216380486, -83.89711726407678 -16.99071473040609 C-83.62349170900995 -17.133465007218923, -83.34986615394313 -17.27621528403176, -82.7888579127924 -17.56889292409717 C-82.39179076399746 -17.74466277229021, -81.99472361520255 -17.920432620483247, -81.64583159514781 -18.07487676824742 C-81.18774437059353 -18.243457101395276, -80.72965714603927 -18.412037434543134, -80.47273525146062 -18.506587066708033 C-80.01730958857765 -18.641755012873613, -79.56188392569467 -18.776922959039194, -79.27438938623541 -18.862249829261067 C-78.85918837485322 -18.957016750669247, -78.44398736347101 -19.051783672077423, -78.05571825967677 -19.140403561325773 C-77.78696386456163 -19.183853687706527, -77.51820946944648 -19.227303814087282, -76.82172965284788 -19.3399052695533 C-76.36286937034215 -19.384170969146396, -75.90400908783644 -19.428436668739494, -75.5774942896239 -19.45993515863156 C-75.2625631553086 -19.470034387132785, -74.94763202099331 -19.48013361563401, -74.328125 -19.5 C-74.328125 -19.5, -74.328125 -19.5, -74.328125 -19.5" stroke="none" stroke-width="0" fill="#134e4a" style="fill:#134e4a !important;stroke:#5eead4 !important;stroke-width:2px !important"/><path d="M-74.328125 -19.5 C-28.3653368781834 -19.5, 17.597451243633202 -19.5, 74.328125 -19.5 M-74.328125 -19.5 C-31.075884986549013 -19.5, 12.176355026901973 -19.5, 74.328125 -19.5 M74.328125 -19.5 C74.328125 -19.5, 74.328125 -19.5, 74.328125 -19.5 M74.328125 -19.5 C74.328125 -19.5, 74.328125 -19.5, 74.328125 -19.5 M74.328125 -19.5 C74.75868284541298 -19.48619284792761, 75.18924069082597 -19.472385695855223, 75.5774942896239 -19.45993515863156 M74.328125 -19.5 C74.61142383273054 -19.490915157842057, 74.89472266546106 -19.481830315684117, 75.5774942896239 -19.45993515863156 M75.5774942896239 -19.45993515863156 C76.01755931225274 -19.417482615154174, 76.4576243348816 -19.375030071676793, 76.82172965284786 -19.3399052695533 M75.5774942896239 -19.45993515863156 C76.02881835679906 -19.416396468667777, 76.48014242397423 -19.37285777870399, 76.82172965284786 -19.3399052695533 M76.82172965284786 -19.3399052695533 C77.28079638276768 -19.265686920775526, 77.73986311268749 -19.191468571997753, 78.05571825967675 -19.140403561325776 M76.82172965284786 -19.3399052695533 C77.30538061384486 -19.261712332948527, 77.78903157484186 -19.18351939634375, 78.05571825967675 -19.140403561325776 M78.05571825967675 -19.140403561325776 C78.33078087044767 -19.077622315368597, 78.60584348121859 -19.014841069411418, 79.27438938623538 -18.862249829261074 M78.05571825967675 -19.140403561325776 C78.46457283590144 -19.04708517232794, 78.87342741212612 -18.953766783330106, 79.27438938623538 -18.862249829261074 M79.27438938623538 -18.862249829261074 C79.61450625597243 -18.761304927633002, 79.95462312570947 -18.660360026004927, 80.4727352514606 -18.50658706670804 M79.27438938623538 -18.862249829261074 C79.52357876781932 -18.78829172882872, 79.77276814940323 -18.714333628396368, 80.4727352514606 -18.50658706670804 M80.4727352514606 -18.50658706670804 C80.89804255434417 -18.35007004774928, 81.32334985722773 -18.193553028790518, 81.6458315951478 -18.074876768247425 M80.4727352514606 -18.50658706670804 C80.803094364053 -18.385011859467877, 81.13345347664539 -18.263436652227718, 81.6458315951478 -18.074876768247425 M81.6458315951478 -18.074876768247425 C81.95439831427794 -17.938283434995014, 82.26296503340808 -17.801690101742608, 82.78885791279238 -17.568892924097174 M81.6458315951478 -18.074876768247425 C82.02892430612333 -17.905292989140065, 82.41201701709885 -17.735709210032706, 82.78885791279238 -17.568892924097174 M82.78885791279238 -17.568892924097174 C83.0238114986359 -17.446317788857566, 83.2587650844794 -17.32374265361796, 83.89711726407678 -16.990714730406097 M82.78885791279238 -17.568892924097174 C83.22929538236467 -17.339116978334975, 83.66973285193696 -17.109341032572775, 83.89711726407678 -16.990714730406097 M83.89711726407678 -16.990714730406097 C84.20207880789074 -16.80584525039312, 84.50704035170469 -16.620975770380145, 84.9660555736057 -16.342718045390892 M83.89711726407678 -16.990714730406097 C84.22705515368554 -16.79070444279501, 84.55699304329428 -16.59069415518393, 84.9660555736057 -16.342718045390892 M84.9660555736057 -16.342718045390892 C85.37200168416241 -16.05954761179043, 85.77794779471913 -15.77637717818996, 85.99128034457871 -15.627565626425154 M84.9660555736057 -16.342718045390892 C85.31090185479633 -16.102168207787226, 85.65574813598695 -15.86161837018356, 85.99128034457871 -15.627565626425154 M85.99128034457871 -15.627565626425154 C86.18746327784733 -15.471114957790535, 86.38364621111596 -15.314664289155916, 86.96857870850187 -14.848196188198123 M85.99128034457871 -15.627565626425154 C86.33822592899246 -15.350885755464938, 86.6851715134062 -15.074205884504725, 86.96857870850187 -14.848196188198123 M86.96857870850187 -14.848196188198123 C87.3323867528363 -14.517795348166972, 87.69619479717072 -14.18739450813582, 87.89393473676799 -14.007812326905688 M86.96857870850187 -14.848196188198123 C87.19019260913727 -14.646932307223544, 87.41180650977269 -14.445668426248965, 87.89393473676799 -14.007812326905688 M87.89393473676799 -14.007812326905688 C88.18032344755271 -13.712092470070019, 88.46671215833744 -13.41637261323435, 88.76354594296865 -13.10986736009568 M87.89393473676799 -14.007812326905688 C88.15352374114588 -13.7397653672319, 88.41311274552376 -13.471718407558111, 88.76354594296865 -13.10986736009568 M88.76354594296865 -13.10986736009568 C88.97403803283454 -12.86261137399999, 89.18453012270042 -12.6153553879043, 89.57383890812658 -12.158051136245305 M88.76354594296865 -13.10986736009568 C88.99378375097606 -12.839416929907767, 89.22402155898347 -12.568966499719853, 89.57383890812658 -12.158051136245305 M89.57383890812658 -12.158051136245305 C89.84479468854146 -11.794995075068769, 90.11575046895634 -11.431939013892233, 90.32148396464063 -11.156274872382312 M89.57383890812658 -12.158051136245305 C89.80744824736452 -11.845035903915079, 90.04105758660246 -11.532020671584853, 90.32148396464063 -11.156274872382312 M90.32148396464063 -11.156274872382312 C90.53286783060739 -10.831532489741596, 90.74425169657412 -10.506790107100878, 91.00340887860425 -10.108655082055241 M90.32148396464063 -11.156274872382312 C90.51729253339366 -10.855460328814793, 90.71310110214668 -10.554645785247274, 91.00340887860425 -10.108655082055241 M91.00340887860425 -10.108655082055241 C91.19802958683377 -9.763086307110006, 91.3926502950633 -9.41751753216477, 91.6168114742735 -9.019496659696287 M91.00340887860425 -10.108655082055241 C91.17950135214107 -9.795985063994094, 91.35559382567791 -9.483315045932946, 91.6168114742735 -9.019496659696287 M91.6168114742735 -9.019496659696287 C91.79252377834582 -8.654626300649102, 91.96823608241813 -8.289755941601916, 92.15917114880834 -7.893275190886684 M91.6168114742735 -9.019496659696287 C91.78829467494424 -8.663408124350806, 91.95977787561496 -8.307319589005326, 92.15917114880834 -7.893275190886684 M92.15917114880834 -7.893275190886684 C92.33815460406447 -7.451182595994359, 92.51713805932059 -7.0090900011020345, 92.62825922997033 -6.734618561215508 M92.15917114880834 -7.893275190886684 C92.317169662098 -7.503015808367787, 92.47516817538765 -7.11275642584889, 92.62825922997033 -6.734618561215508 M92.62825922997033 -6.734618561215508 C92.70864587278223 -6.4925068009382505, 92.78903251559413 -6.250395040660994, 93.02214813421489 -5.548287939305138 M92.62825922997033 -6.734618561215508 C92.78505481026153 -6.262375255361514, 92.94185039055273 -5.79013194950752, 93.02214813421489 -5.548287939305138 M93.02214813421489 -5.548287939305138 C93.1123227678972 -5.204412979141041, 93.2024974015795 -4.860538018976944, 93.33921928754556 -4.339158212148133 M93.02214813421489 -5.548287939305138 C93.08907920101859 -5.293050773474736, 93.15601026782231 -5.037813607644334, 93.33921928754556 -4.339158212148133 M93.33921928754556 -4.339158212148133 C93.42346534278012 -3.90657252392874, 93.50771139801468 -3.4739868357093466, 93.57816977658177 -3.1121979531509023 M93.33921928754556 -4.339158212148133 C93.40714326483378 -3.9903829445108023, 93.475067242122 -3.6416076768734715, 93.57816977658177 -3.1121979531509023 M93.57816977658177 -3.1121979531509023 C93.64048892611521 -2.6288629356776183, 93.70280807564865 -2.1455279182043343, 93.73801770250937 -1.872449005199798 M93.57816977658177 -3.1121979531509023 C93.62717813508615 -2.7320988023859263, 93.67618649359055 -2.3519996516209503, 93.73801770250937 -1.872449005199798 M93.73801770250937 -1.872449005199798 C93.75834352228046 -1.555857955558612, 93.77866934205156 -1.2392669059174262, 93.81810621591342 -0.6250057626472757 M93.73801770250937 -1.872449005199798 C93.7563408673596 -1.5870509224650724, 93.77466403220981 -1.3016528397303468, 93.81810621591342 -0.6250057626472757 M93.81810621591342 -0.6250057626472757 C93.81810621591342 -0.2595822786927376, 93.81810621591342 0.10584120526180052, 93.81810621591342 0.625005762647271 M93.81810621591342 -0.6250057626472757 C93.81810621591342 -0.18593942996029528, 93.81810621591342 0.25312690272668514, 93.81810621591342 0.625005762647271 M93.81810621591342 0.625005762647271 C93.79740252016994 0.9474825355742427, 93.77669882442648 1.2699593085012144, 93.73801770250937 1.8724490051997846 M93.81810621591342 0.625005762647271 C93.79118411021776 1.0443392899898432, 93.76426200452208 1.4636728173324154, 93.73801770250937 1.8724490051997846 M93.73801770250937 1.8724490051997846 C93.69703463596991 2.1903055762578645, 93.65605156943047 2.5081621473159443, 93.57816977658177 3.1121979531508885 M93.73801770250937 1.8724490051997846 C93.67550284065305 2.3573019288016064, 93.61298797879672 2.842154852403428, 93.57816977658177 3.1121979531508885 M93.57816977658177 3.1121979531508885 C93.51785078808857 3.421923210640749, 93.45753179959537 3.7316484681306092, 93.33921928754556 4.339158212148129 M93.57816977658177 3.1121979531508885 C93.5167205448872 3.42772677060281, 93.45527131319263 3.7432555880547316, 93.33921928754556 4.339158212148129 M93.33921928754556 4.339158212148129 C93.2402111090866 4.71671930702815, 93.14120293062763 5.094280401908172, 93.02214813421489 5.548287939305125 M93.33921928754556 4.339158212148129 C93.2753872731449 4.582577348027884, 93.21155525874424 4.82599648390764, 93.02214813421489 5.548287939305125 M93.02214813421489 5.548287939305125 C92.91382026039823 5.874554235538142, 92.80549238658155 6.200820531771159, 92.62825922997033 6.734618561215495 M93.02214813421489 5.548287939305125 C92.92337405594208 5.845779725550661, 92.82459997766927 6.143271511796196, 92.62825922997033 6.734618561215495 M92.62825922997033 6.734618561215495 C92.48140979963688 7.09733949327971, 92.33456036930342 7.460060425343925, 92.15917114880834 7.893275190886679 M92.62825922997033 6.734618561215495 C92.52770703760048 6.982984420413395, 92.42715484523065 7.231350279611295, 92.15917114880834 7.893275190886679 M92.15917114880834 7.893275190886679 C91.96536929128675 8.295708894725733, 91.77156743376516 8.698142598564786, 91.6168114742735 9.019496659696284 M92.15917114880834 7.893275190886679 C92.03667311384967 8.147644981516411, 91.91417507889102 8.402014772146142, 91.6168114742735 9.019496659696284 M91.6168114742735 9.019496659696284 C91.39179416919947 9.419037670328134, 91.16677686412544 9.818578680959982, 91.00340887860425 10.108655082055236 M91.6168114742735 9.019496659696284 C91.38407962209837 9.432735629888745, 91.15134776992323 9.845974600081208, 91.00340887860425 10.108655082055236 M91.00340887860425 10.108655082055236 C90.8587878663618 10.330831793039003, 90.71416685411936 10.553008504022769, 90.32148396464065 11.156274872382301 M91.00340887860425 10.108655082055236 C90.8434136012696 10.354450792788853, 90.68341832393496 10.60024650352247, 90.32148396464065 11.156274872382301 M90.32148396464065 11.156274872382301 C90.16183160275455 11.3701944926803, 90.00217924086844 11.5841141129783, 89.57383890812659 12.158051136245302 M90.32148396464065 11.156274872382301 C90.15486802065439 11.379525058299134, 89.98825207666812 11.602775244215966, 89.57383890812659 12.158051136245302 M89.57383890812659 12.158051136245302 C89.28141867397669 12.501544582460461, 88.9889984398268 12.845038028675619, 88.76354594296866 13.10986736009567 M89.57383890812659 12.158051136245302 C89.3309344344715 12.443380552656668, 89.08802996081641 12.728709969068033, 88.76354594296866 13.10986736009567 M88.76354594296866 13.10986736009567 C88.43245177044297 13.451749276565556, 88.10135759791727 13.793631193035441, 87.89393473676799 14.007812326905684 M88.76354594296866 13.10986736009567 C88.43454201095328 13.449590931626714, 88.10553807893791 13.78931450315776, 87.89393473676799 14.007812326905684 M87.89393473676799 14.007812326905684 C87.66927202345775 14.21184505888438, 87.44460931014753 14.415877790863078, 86.9685787085019 14.848196188198111 M87.89393473676799 14.007812326905684 C87.53479115813226 14.33397702260428, 87.17564757949654 14.660141718302878, 86.9685787085019 14.848196188198111 M86.9685787085019 14.848196188198111 C86.66577217403184 15.089676341417679, 86.36296563956179 15.331156494637247, 85.99128034457871 15.627565626425152 M86.9685787085019 14.848196188198111 C86.60982002230318 15.134296693471992, 86.25106133610447 15.42039719874587, 85.99128034457871 15.627565626425152 M85.99128034457871 15.627565626425152 C85.6113807393189 15.89256714546554, 85.2314811340591 16.157568664505927, 84.9660555736057 16.34271804539089 M85.99128034457871 15.627565626425152 C85.73557019021231 15.805937960596976, 85.47986003584592 15.9843102947688, 84.9660555736057 16.34271804539089 M84.9660555736057 16.34271804539089 C84.58676054111903 16.572648923069327, 84.20746550863238 16.80257980074777, 83.89711726407678 16.990714730406093 M84.9660555736057 16.34271804539089 C84.57312725263353 16.58091350266734, 84.18019893166137 16.81910895994379, 83.89711726407678 16.990714730406093 M83.89711726407678 16.990714730406093 C83.5291974994664 17.182658235939474, 83.16127773485601 17.37460174147285, 82.78885791279238 17.56889292409717 M83.89711726407678 16.990714730406093 C83.5811060214536 17.155577593267747, 83.26509477883042 17.320440456129397, 82.78885791279238 17.56889292409717 M82.78885791279238 17.56889292409717 C82.54690812373745 17.675996918526298, 82.30495833468254 17.783100912955426, 81.6458315951478 18.07487676824742 M82.78885791279238 17.56889292409717 C82.44777778024243 17.719878980994384, 82.1066976476925 17.870865037891598, 81.6458315951478 18.07487676824742 M81.6458315951478 18.07487676824742 C81.1995277160054 18.239120721359658, 80.753223836863 18.403364674471895, 80.47273525146062 18.506587066708033 M81.6458315951478 18.07487676824742 C81.2289724067181 18.22828480299365, 80.8121132182884 18.381692837739877, 80.47273525146062 18.506587066708033 M80.47273525146062 18.506587066708033 C80.11244457004902 18.61351944974662, 79.75215388863742 18.7204518327852, 79.27438938623541 18.86224982926107 M80.47273525146062 18.506587066708033 C80.00434784626098 18.645601989955626, 79.53596044106133 18.78461691320322, 79.27438938623541 18.86224982926107 M79.27438938623541 18.86224982926107 C78.85476198035042 18.958027046329587, 78.43513457446542 19.053804263398106, 78.05571825967677 19.140403561325773 M79.27438938623541 18.86224982926107 C78.919403258585 18.943273096396304, 78.56441713093459 19.02429636353154, 78.05571825967677 19.140403561325773 M78.05571825967677 19.140403561325773 C77.69588324618768 19.198578895744483, 77.33604823269859 19.256754230163192, 76.82172965284788 19.3399052695533 M78.05571825967677 19.140403561325773 C77.74854635814681 19.190064732211464, 77.44137445661686 19.239725903097153, 76.82172965284788 19.3399052695533 M76.82172965284788 19.3399052695533 C76.4033035842741 19.38027032915764, 75.98487751570032 19.42063538876198, 75.5774942896239 19.45993515863156 M76.82172965284788 19.3399052695533 C76.54730691035077 19.36637850148036, 76.27288416785366 19.392851733407422, 75.5774942896239 19.45993515863156 M75.5774942896239 19.45993515863156 C75.30280844653583 19.468743798975833, 75.02812260344777 19.47755243932011, 74.328125 19.5 M75.5774942896239 19.45993515863156 C75.2412161503076 19.47071894403374, 74.90493801099127 19.481502729435928, 74.328125 19.5 M74.328125 19.5 C74.328125 19.5, 74.328125 19.5, 74.328125 19.5 M74.328125 19.5 C74.328125 19.5, 74.328125 19.5, 74.328125 19.5 M74.328125 19.5 C33.61616151061639 19.5, -7.095801978767227 19.5, -74.328125 19.5 M74.328125 19.5 C42.329462560876976 19.5, 10.33080012175396 19.5, -74.328125 19.5 M-74.328125 19.5 C-74.6427865439077 19.48990941673842, -74.95744808781541 19.47981883347684, -75.5774942896239 19.45993515863156 M-74.328125 19.5 C-74.58032909873496 19.49191230543907, -74.83253319746991 19.483824610878138, -75.5774942896239 19.45993515863156 M-75.5774942896239 19.45993515863156 C-76.05267742006 19.414094813529715, -76.5278605504961 19.36825446842787, -76.82172965284786 19.3399052695533 M-75.5774942896239 19.45993515863156 C-76.02620482375237 19.41664859305756, -76.47491535788082 19.373362027483555, -76.82172965284786 19.3399052695533 M-76.82172965284786 19.3399052695533 C-77.23163564150164 19.273634848176176, -77.6415416301554 19.207364426799053, -78.05571825967675 19.140403561325773 M-76.82172965284786 19.3399052695533 C-77.09311754648216 19.29602937955505, -77.36450544011647 19.252153489556807, -78.05571825967675 19.140403561325773 M-78.05571825967675 19.140403561325773 C-78.31377620484481 19.081503519326635, -78.57183415001286 19.022603477327493, -79.27438938623538 18.862249829261074 M-78.05571825967675 19.140403561325773 C-78.52229581527861 19.033910278962743, -78.98887337088047 18.92741699659971, -79.27438938623538 18.862249829261074 M-79.27438938623538 18.862249829261074 C-79.71296770200358 18.732082087285633, -80.15154601777178 18.601914345310192, -80.47273525146059 18.506587066708043 M-79.27438938623538 18.862249829261074 C-79.57202363551276 18.773913546389604, -79.86965788479014 18.685577263518137, -80.47273525146059 18.506587066708043 M-80.47273525146059 18.506587066708043 C-80.89350566658193 18.35173966438431, -81.31427608170327 18.19689226206058, -81.6458315951478 18.074876768247425 M-80.47273525146059 18.506587066708043 C-80.75444637571519 18.402914768873266, -81.03615749996979 18.299242471038486, -81.6458315951478 18.074876768247425 M-81.6458315951478 18.074876768247425 C-81.99548122285374 17.920097250049693, -82.34513085055967 17.765317731851965, -82.78885791279238 17.568892924097174 M-81.6458315951478 18.074876768247425 C-82.05141589486009 17.89533662999558, -82.45700019457236 17.71579649174373, -82.78885791279238 17.568892924097174 M-82.78885791279238 17.568892924097174 C-83.12776810487328 17.392083693970907, -83.46667829695419 17.215274463844636, -83.89711726407678 16.990714730406097 M-82.78885791279238 17.568892924097174 C-83.10545858821051 17.40372255452395, -83.42205926362864 17.238552184950724, -83.89711726407678 16.990714730406097 M-83.89711726407678 16.990714730406097 C-84.14852135006677 16.838312096064563, -84.39992543605678 16.685909461723025, -84.96605557360569 16.3427180453909 M-83.89711726407678 16.990714730406097 C-84.15592206919733 16.83382573663617, -84.41472687431786 16.676936742866246, -84.96605557360569 16.3427180453909 M-84.96605557360569 16.3427180453909 C-85.21562503471749 16.168629193007156, -85.4651944958293 15.99454034062341, -85.99128034457871 15.627565626425156 M-84.96605557360569 16.3427180453909 C-85.23340501322637 16.156226649682225, -85.50075445284705 15.969735253973546, -85.99128034457871 15.627565626425156 M-85.99128034457871 15.627565626425156 C-86.35913142228081 15.334214180886017, -86.72698249998291 15.040862735346877, -86.96857870850187 14.848196188198125 M-85.99128034457871 15.627565626425156 C-86.33245905114946 15.35548468708167, -86.67363775772019 15.083403747738185, -86.96857870850187 14.848196188198125 M-86.96857870850187 14.848196188198125 C-87.28699966382457 14.559014701530849, -87.60542061914728 14.269833214863574, -87.89393473676797 14.007812326905697 M-86.96857870850187 14.848196188198125 C-87.32305813505147 14.526267352017445, -87.67753756160108 14.204338515836765, -87.89393473676797 14.007812326905697 M-87.89393473676797 14.007812326905697 C-88.21876649991208 13.672396862275681, -88.54359826305617 13.336981397645665, -88.76354594296865 13.109867360095677 M-87.89393473676797 14.007812326905697 C-88.12211433600817 13.772198156796694, -88.35029393524836 13.536583986687694, -88.76354594296865 13.109867360095677 M-88.76354594296865 13.109867360095677 C-89.00230374108824 12.829408864720817, -89.24106153920785 12.548950369345956, -89.57383890812658 12.158051136245307 M-88.76354594296865 13.109867360095677 C-89.01453876698012 12.815036907115521, -89.2655315909916 12.520206454135367, -89.57383890812658 12.158051136245307 M-89.57383890812658 12.158051136245307 C-89.79298625841425 11.864413651594152, -90.01213360870192 11.570776166942998, -90.32148396464063 11.156274872382316 M-89.57383890812658 12.158051136245307 C-89.78380018148799 11.876722157806512, -89.9937614548494 11.595393179367717, -90.32148396464063 11.156274872382316 M-90.32148396464063 11.156274872382316 C-90.50354906502899 10.876573986860908, -90.68561416541736 10.596873101339499, -91.00340887860425 10.108655082055249 M-90.32148396464063 11.156274872382316 C-90.47786821506622 10.916026668677505, -90.63425246549183 10.675778464972693, -91.00340887860425 10.108655082055249 M-91.00340887860425 10.108655082055249 C-91.20959765611435 9.7425460287083, -91.41578643362446 9.376436975361353, -91.6168114742735 9.019496659696289 M-91.00340887860425 10.108655082055249 C-91.19822684698889 9.762736051729858, -91.39304481537351 9.416817021404466, -91.6168114742735 9.019496659696289 M-91.6168114742735 9.019496659696289 C-91.75392779177132 8.734771692592867, -91.89104410926913 8.450046725489443, -92.15917114880834 7.893275190886686 M-91.6168114742735 9.019496659696289 C-91.75271482785247 8.737290438123635, -91.88861818143143 8.455084216550981, -92.15917114880834 7.893275190886686 M-92.15917114880834 7.893275190886686 C-92.27205213280584 7.61445697800752, -92.38493311680332 7.335638765128354, -92.62825922997033 6.73461856121551 M-92.15917114880834 7.893275190886686 C-92.29229060657799 7.564467556506014, -92.42541006434764 7.235659922125342, -92.62825922997033 6.73461856121551 M-92.62825922997033 6.73461856121551 C-92.77860612365755 6.281797671954025, -92.92895301734477 5.828976782692541, -93.02214813421489 5.5482879393051325 M-92.62825922997033 6.73461856121551 C-92.73825086775828 6.403341272985753, -92.84824250554624 6.072063984755996, -93.02214813421489 5.5482879393051325 M-93.02214813421489 5.5482879393051325 C-93.1385882637612 5.104251259873648, -93.25502839330753 4.6602145804421635, -93.33921928754556 4.339158212148136 M-93.02214813421489 5.5482879393051325 C-93.13201824629377 5.129305583940573, -93.24188835837265 4.710323228576012, -93.33921928754556 4.339158212148136 M-93.33921928754556 4.339158212148136 C-93.40379362643098 4.007582629762866, -93.4683679653164 3.676007047377597, -93.57816977658177 3.112197953150904 M-93.33921928754556 4.339158212148136 C-93.40511568309292 4.000794148220562, -93.47101207864029 3.6624300842929878, -93.57816977658177 3.112197953150904 M-93.57816977658177 3.112197953150904 C-93.61121267719402 2.85592374106109, -93.64425557780626 2.599649528971276, -93.73801770250937 1.872449005199809 M-93.57816977658177 3.112197953150904 C-93.64114601158262 2.6237667105485194, -93.70412224658348 2.1353354679461343, -93.73801770250937 1.872449005199809 M-93.73801770250937 1.872449005199809 C-93.76411933428784 1.4658950213922113, -93.7902209660663 1.0593410375846135, -93.81810621591342 0.6250057626472781 M-93.73801770250937 1.872449005199809 C-93.75883723588059 1.5481679677181375, -93.77965676925182 1.2238869302364659, -93.81810621591342 0.6250057626472781 M-93.81810621591342 0.6250057626472781 C-93.81810621591342 0.3359605937211385, -93.81810621591342 0.04691542479499888, -93.81810621591342 -0.6250057626472687 M-93.81810621591342 0.6250057626472781 C-93.81810621591342 0.3230102798690142, -93.81810621591342 0.02101479709075027, -93.81810621591342 -0.6250057626472687 M-93.81810621591342 -0.6250057626472687 C-93.79952588048671 -0.9144094846950757, -93.78094554505999 -1.2038132067428826, -93.73801770250937 -1.8724490051997822 M-93.81810621591342 -0.6250057626472687 C-93.79339378216144 -1.009921865851765, -93.76868134840947 -1.3948379690562613, -93.73801770250937 -1.8724490051997822 M-93.73801770250937 -1.8724490051997822 C-93.6935387075668 -2.2174193066032766, -93.64905971262424 -2.562389608006771, -93.57816977658177 -3.112197953150895 M-93.73801770250937 -1.8724490051997822 C-93.67838858301603 -2.334920680888597, -93.6187594635227 -2.7973923565774115, -93.57816977658177 -3.112197953150895 M-93.57816977658177 -3.112197953150895 C-93.49741150115292 -3.5268746292104898, -93.41665322572408 -3.941551305270084, -93.33921928754556 -4.339158212148126 M-93.57816977658177 -3.112197953150895 C-93.50901050238946 -3.4673162093106717, -93.43985122819714 -3.8224344654704483, -93.33921928754556 -4.339158212148126 M-93.33921928754556 -4.339158212148126 C-93.27519115404263 -4.583325235163399, -93.2111630205397 -4.827492258178673, -93.02214813421489 -5.548287939305123 M-93.33921928754556 -4.339158212148126 C-93.26613352360357 -4.617865905629402, -93.19304775966158 -4.8965735991106785, -93.02214813421489 -5.548287939305123 M-93.02214813421489 -5.548287939305123 C-92.8657085681477 -6.019458987039559, -92.7092690020805 -6.490630034773996, -92.62825922997033 -6.734618561215485 M-93.02214813421489 -5.548287939305123 C-92.88965458970534 -5.947337385388335, -92.7571610451958 -6.346386831471547, -92.62825922997033 -6.734618561215485 M-92.62825922997033 -6.734618561215485 C-92.5120440136656 -7.021672392356494, -92.39582879736089 -7.308726223497502, -92.15917114880834 -7.893275190886676 M-92.62825922997033 -6.734618561215485 C-92.51206728447745 -7.02161491300134, -92.39587533898457 -7.308611264787196, -92.15917114880834 -7.893275190886676 M-92.15917114880834 -7.893275190886676 C-91.95870189175582 -8.309553892511206, -91.75823263470329 -8.725832594135737, -91.6168114742735 -9.019496659696282 M-92.15917114880834 -7.893275190886676 C-92.02000103262337 -8.182264914908219, -91.88083091643841 -8.47125463892976, -91.6168114742735 -9.019496659696282 M-91.6168114742735 -9.019496659696282 C-91.4382213942836 -9.336601430924938, -91.2596313142937 -9.653706202153595, -91.00340887860425 -10.108655082055243 M-91.6168114742735 -9.019496659696282 C-91.49061288401447 -9.243575035694182, -91.36441429375542 -9.467653411692082, -91.00340887860425 -10.108655082055243 M-91.00340887860425 -10.108655082055243 C-90.75243868332278 -10.494212696941188, -90.50146848804131 -10.879770311827134, -90.32148396464063 -11.156274872382308 M-91.00340887860425 -10.108655082055243 C-90.86287694369484 -10.324549872184438, -90.72234500878544 -10.540444662313632, -90.32148396464063 -11.156274872382308 M-90.32148396464063 -11.156274872382308 C-90.12694818684136 -11.416935092059388, -89.9324124090421 -11.677595311736466, -89.57383890812659 -12.158051136245302 M-90.32148396464063 -11.156274872382308 C-90.02482398902463 -11.553772213428008, -89.72816401340862 -11.95126955447371, -89.57383890812659 -12.158051136245302 M-89.57383890812659 -12.158051136245302 C-89.31660529394952 -12.460212376464982, -89.05937167977245 -12.762373616684664, -88.76354594296866 -13.10986736009567 M-89.57383890812659 -12.158051136245302 C-89.37957079619454 -12.386249514689402, -89.1853026842625 -12.614447893133502, -88.76354594296866 -13.10986736009567 M-88.76354594296866 -13.10986736009567 C-88.43356999928977 -13.45059461347293, -88.10359405561088 -13.791321866850188, -87.89393473676799 -14.007812326905677 M-88.76354594296866 -13.10986736009567 C-88.53741461173378 -13.343366525323248, -88.31128328049891 -13.576865690550827, -87.89393473676799 -14.007812326905677 M-87.89393473676799 -14.007812326905677 C-87.69341307107746 -14.189920798173285, -87.49289140538691 -14.372029269440892, -86.9685787085019 -14.848196188198107 M-87.89393473676799 -14.007812326905677 C-87.53678111750828 -14.332169794150413, -87.17962749824858 -14.656527261395148, -86.9685787085019 -14.848196188198107 M-86.9685787085019 -14.848196188198107 C-86.60847495778549 -15.135369346631181, -86.24837120706908 -15.422542505064255, -85.99128034457871 -15.627565626425149 M-86.9685787085019 -14.848196188198107 C-86.7585114006699 -15.015719276068292, -86.5484440928379 -15.183242363938476, -85.99128034457871 -15.627565626425149 M-85.99128034457871 -15.627565626425149 C-85.68215003077428 -15.843201551299515, -85.37301971696986 -16.05883747617388, -84.96605557360571 -16.342718045390885 M-85.99128034457871 -15.627565626425149 C-85.68429298181661 -15.841706721419246, -85.37730561905451 -16.055847816413344, -84.96605557360571 -16.342718045390885 M-84.96605557360571 -16.342718045390885 C-84.53874581423429 -16.601755732672718, -84.11143605486286 -16.860793419954554, -83.89711726407678 -16.99071473040609 M-84.96605557360571 -16.342718045390885 C-84.68580939560923 -16.5126049254017, -84.40556321761274 -16.682491805412514, -83.89711726407678 -16.99071473040609 M-83.89711726407678 -16.99071473040609 C-83.64045171678148 -17.124616982027923, -83.38378616948617 -17.258519233649757, -82.7888579127924 -17.56889292409717 M-83.89711726407678 -16.99071473040609 C-83.5763231071945 -17.158072836573115, -83.25552895031221 -17.325430942740145, -82.7888579127924 -17.56889292409717 M-82.7888579127924 -17.56889292409717 C-82.42582041234047 -17.729598856422413, -82.06278291188855 -17.890304788747656, -81.64583159514781 -18.07487676824742 M-82.7888579127924 -17.56889292409717 C-82.33650931136232 -17.769134231505763, -81.88416070993223 -17.969375538914356, -81.64583159514781 -18.07487676824742 M-81.64583159514781 -18.07487676824742 C-81.25918337149075 -18.21716688869022, -80.87253514783369 -18.359457009133013, -80.47273525146062 -18.506587066708033 M-81.64583159514781 -18.07487676824742 C-81.23471440096166 -18.226171696033607, -80.82359720677552 -18.377466623819792, -80.47273525146062 -18.506587066708033 M-80.47273525146062 -18.506587066708033 C-80.17593104630154 -18.594676996842182, -79.87912684114247 -18.68276692697633, -79.27438938623541 -18.862249829261067 M-80.47273525146062 -18.506587066708033 C-79.99925518536067 -18.647113464978915, -79.5257751192607 -18.7876398632498, -79.27438938623541 -18.862249829261067 M-79.27438938623541 -18.862249829261067 C-78.96104692542686 -18.933768201189974, -78.6477044646183 -19.005286573118877, -78.05571825967677 -19.140403561325773 M-79.27438938623541 -18.862249829261067 C-78.97865437191898 -18.929749416427473, -78.68291935760253 -18.99724900359388, -78.05571825967677 -19.140403561325773 M-78.05571825967677 -19.140403561325773 C-77.67064003459389 -19.202660022430937, -77.28556180951101 -19.2649164835361, -76.82172965284788 -19.3399052695533 M-78.05571825967677 -19.140403561325773 C-77.75434469710684 -19.189127301735194, -77.45297113453694 -19.237851042144612, -76.82172965284788 -19.3399052695533 M-76.82172965284788 -19.3399052695533 C-76.34959546612016 -19.385451486722488, -75.87746127939243 -19.430997703891673, -75.5774942896239 -19.45993515863156 M-76.82172965284788 -19.3399052695533 C-76.52884536368907 -19.368159464683558, -76.23596107453025 -19.396413659813813, -75.5774942896239 -19.45993515863156 M-75.5774942896239 -19.45993515863156 C-75.22449074530338 -19.471255295218203, -74.87148720098286 -19.482575431804843, -74.328125 -19.5 M-75.5774942896239 -19.45993515863156 C-75.11168964282459 -19.47487260702067, -74.64588499602527 -19.48981005540978, -74.328125 -19.5 M-74.328125 -19.5 C-74.328125 -19.5, -74.328125 -19.5, -74.328125 -19.5 M-74.328125 -19.5 C-74.328125 -19.5, -74.328125 -19.5, -74.328125 -19.5" stroke="#5eead4" stroke-width="2" fill="none" stroke-dasharray="0 0" style="fill:#134e4a !important;stroke:#5eead4 !important;stroke-width:2px !important"/></g><g class="label" style="color:#f0fdfa !important" transform="translate(-81.453125, -12)"><rect/><foreignObject width="162.90625" height="24"><div style="color: rgb(240, 253, 250) !important; display: table-cell; white-space: nowrap; line-height: 1.5; max-width: 200px; text-align: center;" xmlns="http://www.w3.org/1999/xhtml"><span style="color:#f0fdfa !important" class="nodeLabel"><p>Tagged&lt;T&gt; or T stream</p></span></div></foreignObject></g></g><g class="node default app" id="my-svg-flowchart-UI-16" data-look="classic" transform="translate(189.83203125, 650)"><rect class="basic label-container" style="fill:#172554 !important;stroke:#60a5fa !important;stroke-width:2px !important" x="-98.3203125" y="-27" width="196.640625" height="54"/><g class="label" style="color:#dbeafe !important" transform="translate(-68.3203125, -12)"><rect/><foreignObject width="136.640625" height="24"><div style="color: rgb(219, 234, 254) !important; display: table-cell; white-space: nowrap; line-height: 1.5; max-width: 200px; text-align: center;" xmlns="http://www.w3.org/1999/xhtml"><span style="color:#dbeafe !important" class="nodeLabel"><p>Chat UI · SSE proxy</p></span></div></foreignObject></g></g><g class="node default app" id="my-svg-flowchart-AGENT-17" data-look="classic" transform="translate(436.83984375, 650)"><rect class="basic label-container" style="fill:#172554 !important;stroke:#60a5fa !important;stroke-width:2px !important" x="-98.6875" y="-27" width="197.375" height="54"/><g class="label" style="color:#dbeafe !important" transform="translate(-68.6875, -12)"><rect/><foreignObject width="137.375" height="24"><div style="color: rgb(219, 234, 254) !important; display: table-cell; white-space: nowrap; line-height: 1.5; max-width: 200px; text-align: center;" xmlns="http://www.w3.org/1999/xhtml"><span style="color:#dbeafe !important" class="nodeLabel"><p>Multi-model agents</p></span></div></foreignObject></g></g><g class="node default app" id="my-svg-flowchart-MET-18" data-look="classic" transform="translate(919.22265625, 650)"><rect class="basic label-container" style="fill:#172554 !important;stroke:#60a5fa !important;stroke-width:2px !important" x="-117.2421875" y="-27" width="234.484375" height="54"/><g class="label" style="color:#dbeafe !important" transform="translate(-87.2421875, -12)"><rect/><foreignObject width="174.484375" height="24"><div style="color: rgb(219, 234, 254) !important; display: table-cell; white-space: nowrap; line-height: 1.5; max-width: 200px; text-align: center;" xmlns="http://www.w3.org/1999/xhtml"><span style="color:#dbeafe !important" class="nodeLabel"><p>onSourceEvent · metrics</p></span></div></foreignObject></g></g><g class="node default app" id="my-svg-flowchart-ROUTE-19" data-look="classic" transform="translate(668.75390625, 650)"><rect class="basic label-container" style="fill:#172554 !important;stroke:#60a5fa !important;stroke-width:2px !important" x="-83.2265625" y="-27" width="166.453125" height="54"/><g class="label" style="color:#dbeafe !important" transform="translate(-53.2265625, -12)"><rect/><foreignObject width="106.453125" height="24"><div style="color: rgb(219, 234, 254) !important; display: table-cell; white-space: nowrap; line-height: 1.5; max-width: 200px; text-align: center;" xmlns="http://www.w3.org/1999/xhtml"><span style="color:#dbeafe !important" class="nodeLabel"><p>Winner routing</p></span></div></foreignObject></g></g></g></g></g><defs><filter id="my-svg-drop-shadow" height="130%" width="130%"><feDropShadow dx="4" dy="4" stdDeviation="0" flood-opacity="0.06" flood-color="#000000"/></filter></defs><defs><filter id="my-svg-drop-shadow-small" height="150%" width="150%"><feDropShadow dx="2" dy="2" stdDeviation="0" flood-opacity="0.06" flood-color="#000000"/></filter></defs></svg>