<svg id="my-svg" width="100%" xmlns="http://www.w3.org/2000/svg" xmlns:xlink="http://www.w3.org/1999/xlink" class="flowchart" style="max-width: 1171.8px; background-color: transparent;" viewBox="0 0 1171.796875 710" role="graphics-document document" aria-roledescription="flowchart-v2"><style>#my-svg{font-family:"trebuchet ms",verdana,arial,sans-serif;font-size:16px;fill:#333;}@keyframes edge-animation-frame{from{stroke-dashoffset:0;}}@keyframes dash{to{stroke-dashoffset:0;}}#my-svg .edge-animation-slow{stroke-dasharray:9,5!important;stroke-dashoffset:900;animation:dash 50s linear infinite;stroke-linecap:round;}#my-svg .edge-animation-fast{stroke-dasharray:9,5!important;stroke-dashoffset:900;animation:dash 20s linear infinite;stroke-linecap:round;}#my-svg .error-icon{fill:#552222;}#my-svg .error-text{fill:#552222;stroke:#552222;}#my-svg .edge-thickness-normal{stroke-width:1px;}#my-svg .edge-thickness-thick{stroke-width:3.5px;}#my-svg .edge-pattern-solid{stroke-dasharray:0;}#my-svg .edge-thickness-invisible{stroke-width:0;fill:none;}#my-svg .edge-pattern-dashed{stroke-dasharray:3;}#my-svg .edge-pattern-dotted{stroke-dasharray:2;}#my-svg .marker{fill:#333333;stroke:#333333;}#my-svg .marker.cross{stroke:#333333;}#my-svg svg{font-family:"trebuchet ms",verdana,arial,sans-serif;font-size:16px;}#my-svg p{margin:0;}#my-svg .label{font-family:"trebuchet ms",verdana,arial,sans-serif;color:#333;}#my-svg .cluster-label text{fill:#333;}#my-svg .cluster-label span{color:#333;}#my-svg .cluster-label span p{background-color:transparent;}#my-svg .label text,#my-svg span{fill:#333;color:#333;}#my-svg .node rect,#my-svg .node circle,#my-svg .node ellipse,#my-svg .node polygon,#my-svg .node path{fill:#ECECFF;stroke:#9370DB;stroke-width:1px;}#my-svg .rough-node .label text,#my-svg .node .label text,#my-svg .image-shape .label,#my-svg .icon-shape .label{text-anchor:middle;}#my-svg .node .katex path{fill:#000;stroke:#000;stroke-width:1px;}#my-svg .rough-node .label,#my-svg .node .label,#my-svg .image-shape .label,#my-svg .icon-shape .label{text-align:center;}#my-svg .node.clickable{cursor:pointer;}#my-svg .root .anchor path{fill:#333333!important;stroke-width:0;stroke:#333333;}#my-svg .arrowheadPath{fill:#333333;}#my-svg .edgePath .path{stroke:#333333;stroke-width:1px;}#my-svg .flowchart-link{stroke:#333333;fill:none;}#my-svg .edgeLabel{background-color:rgba(232,232,232, 0.8);text-align:center;}#my-svg .edgeLabel p{background-color:rgba(232,232,232, 0.8);}#my-svg .edgeLabel rect{opacity:0.5;background-color:rgba(232,232,232, 0.8);fill:rgba(232,232,232, 0.8);}#my-svg .labelBkg{background-color:rgba(232, 232, 232, 0.5);}#my-svg .cluster rect{fill:#ffffde;stroke:#aaaa33;stroke-width:1px;}#my-svg .cluster text{fill:#333;}#my-svg .cluster span{color:#333;}#my-svg div.mermaidTooltip{position:absolute;text-align:center;max-width:200px;padding:2px;font-family:"trebuchet ms",verdana,arial,sans-serif;font-size:12px;background:hsl(80, 100%, 96.2745098039%);border:1px solid #aaaa33;border-radius:2px;pointer-events:none;z-index:100;}#my-svg .flowchartTitleText{text-anchor:middle;font-size:18px;fill:#333;}#my-svg rect.text{fill:none;stroke-width:0;}#my-svg .icon-shape,#my-svg .image-shape{background-color:rgba(232,232,232, 0.8);text-align:center;}#my-svg .icon-shape p,#my-svg .image-shape p{background-color:rgba(232,232,232, 0.8);padding:2px;}#my-svg .icon-shape .label rect,#my-svg .image-shape .label rect{opacity:0.5;background-color:rgba(232,232,232, 0.8);fill:rgba(232,232,232, 0.8);}#my-svg .label-icon{display:inline-block;height:1em;overflow:visible;vertical-align:-0.125em;}#my-svg .node .label-icon path{fill:currentColor;stroke:revert;stroke-width:revert;}#my-svg .node .neo-node{stroke:#9370DB;}#my-svg [data-look="neo"].node rect,#my-svg [data-look="neo"].cluster rect,#my-svg [data-look="neo"].node polygon{stroke:#9370DB;filter:drop-shadow(1px 2px 2px rgba(185, 185, 185, 1));}#my-svg [data-look="neo"].node path{stroke:#9370DB;stroke-width:1px;}#my-svg [data-look="neo"].node .outer-path{filter:drop-shadow(1px 2px 2px rgba(185, 185, 185, 1));}#my-svg [data-look="neo"].node .neo-line path{stroke:#9370DB;filter:none;}#my-svg [data-look="neo"].node circle{stroke:#9370DB;filter:drop-shadow(1px 2px 2px rgba(185, 185, 185, 1));}#my-svg [data-look="neo"].node circle .state-start{fill:#000000;}#my-svg [data-look="neo"].icon-shape .icon{fill:#9370DB;filter:drop-shadow(1px 2px 2px rgba(185, 185, 185, 1));}#my-svg [data-look="neo"].icon-shape .icon-neo path{stroke:#9370DB;filter:drop-shadow(1px 2px 2px rgba(185, 185, 185, 1));}#my-svg :root{--mermaid-font-family:"trebuchet ms",verdana,arial,sans-serif;}#my-svg .provider&gt;*{fill:rgb(15, 23, 42)!important;stroke:rgb(56, 189, 248)!important;stroke-width:2px!important;color:rgb(224, 242, 254)!important;}#my-svg .provider span{fill:rgb(15, 23, 42)!important;stroke:rgb(56, 189, 248)!important;stroke-width:2px!important;color:rgb(224, 242, 254)!important;}#my-svg .provider tspan{fill:rgb(224, 242, 254)!important;}#my-svg .optional&gt;*{fill:rgb(49, 46, 129)!important;stroke:rgb(165, 180, 252)!important;stroke-width:2px!important;color:rgb(238, 242, 255)!important;}#my-svg .optional span{fill:rgb(49, 46, 129)!important;stroke:rgb(165, 180, 252)!important;stroke-width:2px!important;color:rgb(238, 242, 255)!important;}#my-svg .optional tspan{fill:rgb(238, 242, 255)!important;}#my-svg .mux&gt;*{fill:rgb(4, 47, 46)!important;stroke:rgb(45, 212, 191)!important;stroke-width:2px!important;color:rgb(204, 251, 241)!important;}#my-svg .mux span{fill:rgb(4, 47, 46)!important;stroke:rgb(45, 212, 191)!important;stroke-width:2px!important;color:rgb(204, 251, 241)!important;}#my-svg .mux tspan{fill:rgb(204, 251, 241)!important;}#my-svg .io&gt;*{fill:rgb(19, 78, 74)!important;stroke:rgb(94, 234, 212)!important;stroke-width:2px!important;color:rgb(240, 253, 250)!important;}#my-svg .io span{fill:rgb(19, 78, 74)!important;stroke:rgb(94, 234, 212)!important;stroke-width:2px!important;color:rgb(240, 253, 250)!important;}#my-svg .io tspan{fill:rgb(240, 253, 250)!important;}#my-svg .app&gt;*{fill:rgb(23, 37, 84)!important;stroke:rgb(96, 165, 250)!important;stroke-width:2px!important;color:rgb(219, 234, 254)!important;}#my-svg .app span{fill:rgb(23, 37, 84)!important;stroke:rgb(96, 165, 250)!important;stroke-width:2px!important;color:rgb(219, 234, 254)!important;}#my-svg .app tspan{fill:rgb(219, 234, 254)!important;}</style><g><marker id="my-svg_flowchart-v2-pointEnd" class="marker flowchart-v2" viewBox="0 0 10 10" refX="5" refY="5" markerUnits="userSpaceOnUse" markerWidth="8" markerHeight="8" orient="auto"><path d="M 0 0 L 10 5 L 0 10 z" class="arrowMarkerPath" style="stroke-width: 1; stroke-dasharray: 1, 0;"/></marker><marker id="my-svg_flowchart-v2-pointStart" class="marker flowchart-v2" viewBox="0 0 10 10" refX="4.5" refY="5" markerUnits="userSpaceOnUse" markerWidth="8" markerHeight="8" orient="auto"><path d="M 0 5 L 10 10 L 10 0 z" class="arrowMarkerPath" style="stroke-width: 1; stroke-dasharray: 1, 0;"/></marker><marker id="my-svg_flowchart-v2-pointEnd-margin" class="marker flowchart-v2" viewBox="0 0 11.5 14" refX="11.5" refY="7" markerUnits="userSpaceOnUse" markerWidth="10.5" markerHeight="14" orient="auto"><path d="M 0 0 L 11.5 7 L 0 14 z" class="arrowMarkerPath" style="stroke-width: 0; stroke-dasharray: 1, 0;"/></marker><marker id="my-svg_flowchart-v2-pointStart-margin" class="marker flowchart-v2" viewBox="0 0 11.5 14" refX="1" refY="7" markerUnits="userSpaceOnUse" markerWidth="11.5" markerHeight="14" orient="auto"><polygon points="0,7 11.5,14 11.5,0" class="arrowMarkerPath" style="stroke-width: 0; stroke-dasharray: 1, 0;"/></marker><marker id="my-svg_flowchart-v2-circleEnd" class="marker flowchart-v2" viewBox="0 0 10 10" refX="11" refY="5" markerUnits="userSpaceOnUse" markerWidth="11" markerHeight="11" orient="auto"><circle cx="5" cy="5" r="5" class="arrowMarkerPath" style="stroke-width: 1; stroke-dasharray: 1, 0;"/></marker><marker id="my-svg_flowchart-v2-circleStart" class="marker flowchart-v2" viewBox="0 0 10 10" refX="-1" refY="5" markerUnits="userSpaceOnUse" markerWidth="11" markerHeight="11" orient="auto"><circle cx="5" cy="5" r="5" class="arrowMarkerPath" style="stroke-width: 1; stroke-dasharray: 1, 0;"/></marker><marker id="my-svg_flowchart-v2-circleEnd-margin" class="marker flowchart-v2" viewBox="0 0 10 10" refY="5" refX="12.25" markerUnits="userSpaceOnUse" markerWidth="14" markerHeight="14" orient="auto"><circle cx="5" cy="5" r="5" class="arrowMarkerPath" style="stroke-width: 0; stroke-dasharray: 1, 0;"/></marker><marker id="my-svg_flowchart-v2-circleStart-margin" class="marker flowchart-v2" viewBox="0 0 10 10" refX="-2" refY="5" markerUnits="userSpaceOnUse" markerWidth="14" markerHeight="14" orient="auto"><circle cx="5" cy="5" r="5" class="arrowMarkerPath" style="stroke-width: 0; stroke-dasharray: 1, 0;"/></marker><marker id="my-svg_flowchart-v2-crossEnd" class="marker cross flowchart-v2" viewBox="0 0 11 11" refX="12" refY="5.2" markerUnits="userSpaceOnUse" markerWidth="11" markerHeight="11" orient="auto"><path d="M 1,1 l 9,9 M 10,1 l -9,9" class="arrowMarkerPath" style="stroke-width: 2; stroke-dasharray: 1, 0;"/></marker><marker id="my-svg_flowchart-v2-crossStart" class="marker cross flowchart-v2" viewBox="0 0 11 11" refX="-1" refY="5.2" markerUnits="userSpaceOnUse" markerWidth="11" markerHeight="11" orient="auto"><path d="M 1,1 l 9,9 M 10,1 l -9,9" class="arrowMarkerPath" style="stroke-width: 2; stroke-dasharray: 1, 0;"/></marker><marker id="my-svg_flowchart-v2-crossEnd-margin" class="marker cross flowchart-v2" viewBox="0 0 15 15" refX="17.7" refY="7.5" markerUnits="userSpaceOnUse" markerWidth="12" markerHeight="12" orient="auto"><path d="M 1,1 L 14,14 M 1,14 L 14,1" class="arrowMarkerPath" style="stroke-width: 2.5;"/></marker><marker id="my-svg_flowchart-v2-crossStart-margin" class="marker cross flowchart-v2" viewBox="0 0 15 15" refX="-3.5" refY="7.5" markerUnits="userSpaceOnUse" markerWidth="12" markerHeight="12" orient="auto"><path d="M 1,1 L 14,14 M 1,14 L 14,1" class="arrowMarkerPath" style="stroke-width: 2.5; stroke-dasharray: 1, 0;"/></marker><g class="root"><g class="clusters"><g class="cluster" id="my-svg-APPS" data-look="classic"><rect style="" x="56.51171875" y="598" width="1014.953125" height="104"/><g class="cluster-label" transform="translate(506.12109375, 598)"><foreignObject width="115.734375" height="24"><div xmlns="http://www.w3.org/1999/xhtml" style="display: table-cell; white-space: nowrap; line-height: 1.5;"><span class="nodeLabel"><p>Your application</p></span></div></foreignObject></g></g><g class="cluster" id="my-svg-MUX" data-look="classic"><rect style="" x="8" y="340" width="1140.1328125" height="208"/><g class="cluster-label" transform="translate(461.85546875, 340)"><foreignObject width="232.421875" height="24"><div xmlns="http://www.w3.org/1999/xhtml" style="display: table-cell; white-space: nowrap; line-height: 1.5;"><span class="nodeLabel"><p>llm-stream-mux · generic over T</p></span></div></foreignObject></g></g><g class="cluster" id="my-svg-OPTIONAL_PARSE" data-look="classic"><rect style="" x="304.578125" y="162" width="519.125" height="128"/><g class="cluster-label" transform="translate(428.5625, 162)"><foreignObject width="271.15625" height="24"><div xmlns="http://www.w3.org/1999/xhtml" style="display: table-cell; white-space: nowrap; line-height: 1.5;"><span class="nodeLabel"><p>Optional · userland · no npm coupling</p></span></div></foreignObject></g></g><g class="cluster" id="my-svg-PROVIDERS" data-look="classic"><rect style="" x="181.12109375" y="8" width="982.67578125" height="104"/><g class="cluster-label" transform="translate(566.443359375, 8)"><foreignObject width="212.03125" height="24"><div xmlns="http://www.w3.org/1999/xhtml" style="display: table-cell; white-space: nowrap; line-height: 1.5;"><span class="nodeLabel"><p>Your HTTP layer · fetch / SDK</p></span></div></foreignObject></g></g></g><g class="edgePaths"><path d="M296.891,419L296.891,423.167C296.891,427.333,296.891,435.667,311.937,445.113C326.982,454.559,357.074,465.117,372.12,470.396L387.166,475.676" id="my-svg-L_RACE_TAG_0" class="edge-thickness-normal edge-pattern-solid edge-thickness-normal edge-pattern-solid flowchart-link" style=";" data-edge="true" data-et="edge" data-id="L_RACE_TAG_0" data-points="W3sieCI6Mjk2Ljg5MDYyNSwieSI6NDE5fSx7IngiOjI5Ni44OTA2MjUsInkiOjQ0NH0seyJ4IjozOTAuOTQwNDI5Njg3NSwieSI6NDc3fV0=" data-look="classic" marker-end="url(#my-svg_flowchart-v2-pointEnd)"/><path d="M1048.719,419L1048.719,423.167C1048.719,427.333,1048.719,435.667,964.463,447.199C880.207,458.732,711.696,473.464,627.44,480.83L543.184,488.196" id="my-svg-L_FB_TAG_0" class="edge-thickness-normal edge-pattern-solid edge-thickness-normal edge-pattern-solid flowchart-link" style=";" data-edge="true" data-et="edge" data-id="L_FB_TAG_0" data-points="W3sieCI6MTA0OC43MTg3NSwieSI6NDE5fSx7IngiOjEwNDguNzE4NzUsInkiOjQ0NH0seyJ4Ijo1MzkuMTk5MjY1NTE2MjQ2MSwieSI6NDg4LjU0Mzk3OTA5NDY5ODJ9XQ==" data-look="classic" marker-end="url(#my-svg_flowchart-v2-pointEnd)"/><path d="M594.34,413.888L569.712,418.907C545.083,423.926,495.827,433.963,471.272,443.815C446.717,453.667,446.863,463.334,446.936,468.167L447.01,473" id="my-svg-L_MRG_TAG_0" class="edge-thickness-normal edge-pattern-solid edge-thickness-normal edge-pattern-solid flowchart-link" style=";" data-edge="true" data-et="edge" data-id="L_MRG_TAG_0" data-points="W3sieCI6NTk0LjMzOTg0Mzc1LCJ5Ijo0MTMuODg4Mjg1MDg4ODYwNjR9LHsieCI6NDQ2LjU3MDMxMjUsInkiOjQ0NH0seyJ4Ijo0NDcuMDcwMzEyNSwieSI6NDc3fV0=" data-look="classic" marker-end="url(#my-svg_flowchart-v2-pointEnd)"/><path d="M280.67,87L277.448,91.167C274.225,95.333,267.781,103.667,264.558,112C261.336,120.333,261.336,128.667,261.336,137C261.336,145.333,261.336,153.667,261.336,168.5C261.336,183.333,261.336,204.667,261.336,226C261.336,247.333,261.336,268.667,261.336,283.5C261.336,298.333,261.336,306.667,261.336,315C261.336,323.333,261.336,331.667,263.809,339.45C266.281,347.233,271.227,354.465,273.699,358.082L276.172,361.698" id="my-svg-L_PA_RACE_0" class="edge-thickness-normal edge-pattern-solid edge-thickness-normal edge-pattern-solid flowchart-link" style=";" data-edge="true" data-et="edge" data-id="L_PA_RACE_0" data-points="W3sieCI6MjgwLjY2OTk5Njk5NTE5MjMsInkiOjg3fSx7IngiOjI2MS4zMzU5Mzc1LCJ5IjoxMTJ9LHsieCI6MjYxLjMzNTkzNzUsInkiOjEzN30seyJ4IjoyNjEuMzM1OTM3NSwieSI6MTYyfSx7IngiOjI2MS4zMzU5Mzc1LCJ5IjoyMjZ9LHsieCI6MjYxLjMzNTkzNzUsInkiOjI5MH0seyJ4IjoyNjEuMzM1OTM3NSwieSI6MzE1fSx7IngiOjI2MS4zMzU5Mzc1LCJ5IjozNDB9LHsieCI6Mjc4LjQyOTUzNzI1OTYxNTM2LCJ5IjozNjV9XQ==" data-look="classic" marker-end="url(#my-svg_flowchart-v2-pointEnd)"/><path d="M818.511,87L817.71,91.167C816.908,95.333,815.306,103.667,814.504,112C813.703,120.333,813.703,128.667,830.092,137C846.482,145.333,879.26,153.667,895.65,168.5C912.039,183.333,912.039,204.667,912.039,226C912.039,247.333,912.039,268.667,912.039,283.5C912.039,298.333,912.039,306.667,912.039,315C912.039,323.333,912.039,331.667,818.765,343.718C725.49,355.769,538.941,371.539,445.667,379.424L352.392,387.308" id="my-svg-L_PB_RACE_0" class="edge-thickness-normal edge-pattern-solid edge-thickness-normal edge-pattern-solid flowchart-link" style=";" data-edge="true" data-et="edge" data-id="L_PB_RACE_0" data-points="W3sieCI6ODE4LjUxMDgxNzMwNzY5MjMsInkiOjg3fSx7IngiOjgxMy43MDMxMjUsInkiOjExMn0seyJ4Ijo4MTMuNzAzMTI1LCJ5IjoxMzd9LHsieCI6OTEyLjAzOTA2MjUsInkiOjE2Mn0seyJ4Ijo5MTIuMDM5MDYyNSwieSI6MjI2fSx7IngiOjkxMi4wMzkwNjI1LCJ5IjoyOTB9LHsieCI6OTEyLjAzOTA2MjUsInkiOjMxNX0seyJ4Ijo5MTIuMDM5MDYyNSwieSI6MzQwfSx7IngiOjM0OC40MDYyNSwieSI6Mzg3LjY0NTI1ODM4NTI5ODN9XQ==" data-look="classic" marker-end="url(#my-svg_flowchart-v2-pointEnd)"/><path d="M355.792,87L364.163,91.167C372.533,95.333,389.274,103.667,397.645,112C406.016,120.333,406.016,128.667,406.016,137C406.016,145.333,406.016,153.667,408.326,161.439C410.636,169.211,415.256,176.421,417.566,180.027L419.876,183.632" id="my-svg-L_PA_ASM_0" class="edge-thickness-normal edge-pattern-solid edge-thickness-normal edge-pattern-solid flowchart-link" style=";" data-edge="true" data-et="edge" data-id="L_PA_ASM_0" data-points="W3sieCI6MzU1Ljc5MjE0MjQyNzg4NDY0LCJ5Ijo4N30seyJ4Ijo0MDYuMDE1NjI1LCJ5IjoxMTJ9LHsieCI6NDA2LjAxNTYyNSwieSI6MTM3fSx7IngiOjQwNi4wMTU2MjUsInkiOjE2Mn0seyJ4Ijo0MjIuMDM0MzAxNzU3ODEyNSwieSI6MTg3fV0=" data-look="classic" marker-end="url(#my-svg_flowchart-v2-pointEnd)"/><path d="M828.895,87L829.697,91.167C830.498,95.333,832.101,103.667,832.902,112C833.703,120.333,833.703,128.667,798.98,137C764.257,145.333,694.81,153.667,648.898,161.848C602.987,170.03,580.61,178.06,569.422,182.075L558.234,186.09" id="my-svg-L_PB_ASM_0" class="edge-thickness-normal edge-pattern-solid edge-thickness-normal edge-pattern-solid flowchart-link" style=";" data-edge="true" data-et="edge" data-id="L_PB_ASM_0" data-points="W3sieCI6ODI4Ljg5NTQzMjY5MjMwNzcsInkiOjg3fSx7IngiOjgzMy43MDMxMjUsInkiOjExMn0seyJ4Ijo4MzMuNzAzMTI1LCJ5IjoxMzd9LHsieCI6NjI1LjM2MzI4MTI1LCJ5IjoxNjJ9LHsieCI6NTU0LjQ2ODc1LCJ5IjoxODcuNDQxNTk0NTY3OTU1MzJ9XQ==" data-look="classic" marker-end="url(#my-svg_flowchart-v2-pointEnd)"/><path d="M447.023,265L447.023,269.167C447.023,273.333,447.023,281.667,447.023,290C447.023,298.333,447.023,306.667,447.023,315C447.023,323.333,447.023,331.667,470.923,340.712C494.823,349.758,542.622,359.515,566.521,364.394L590.421,369.273" id="my-svg-L_ASM_MRG_0" class="edge-thickness-normal edge-pattern-solid edge-thickness-normal edge-pattern-solid flowchart-link" style=";" data-edge="true" data-et="edge" data-id="L_ASM_MRG_0" data-points="W3sieCI6NDQ3LjAyMzQzNzUsInkiOjI2NX0seyJ4Ijo0NDcuMDIzNDM3NSwieSI6MjkwfSx7IngiOjQ0Ny4wMjM0Mzc1LCJ5IjozMTV9LHsieCI6NDQ3LjAyMzQzNzUsInkiOjM0MH0seyJ4Ijo1OTQuMzM5ODQzNzUsInkiOjM3MC4wNzI3NzkxMzIzNTV9XQ==" data-look="classic" marker-end="url(#my-svg_flowchart-v2-pointEnd)"/><path d="M1048.719,87L1048.719,91.167C1048.719,95.333,1048.719,103.667,1048.719,112C1048.719,120.333,1048.719,128.667,1048.719,137C1048.719,145.333,1048.719,153.667,1048.719,168.5C1048.719,183.333,1048.719,204.667,1048.719,226C1048.719,247.333,1048.719,268.667,1048.719,283.5C1048.719,298.333,1048.719,306.667,1048.719,315C1048.719,323.333,1048.719,331.667,1048.719,339.333C1048.719,347,1048.719,354,1048.719,357.5L1048.719,361" id="my-svg-L_PC_FB_0" class="edge-thickness-normal edge-pattern-solid edge-thickness-normal edge-pattern-solid flowchart-link" style=";" data-edge="true" data-et="edge" data-id="L_PC_FB_0" data-points="W3sieCI6MTA0OC43MTg3NSwieSI6ODd9LHsieCI6MTA0OC43MTg3NSwieSI6MTEyfSx7IngiOjEwNDguNzE4NzUsInkiOjEzN30seyJ4IjoxMDQ4LjcxODc1LCJ5IjoxNjJ9LHsieCI6MTA0OC43MTg3NSwieSI6MjI2fSx7IngiOjEwNDguNzE4NzUsInkiOjI5MH0seyJ4IjoxMDQ4LjcxODc1LCJ5IjozMTV9LHsieCI6MTA0OC43MTg3NSwieSI6MzQwfSx7IngiOjEwNDguNzE4NzUsInkiOjM2NX1d" data-look="classic" marker-end="url(#my-svg_flowchart-v2-pointEnd)"/><path d="M696.586,265L696.586,269.167C696.586,273.333,696.586,281.667,696.586,290C696.586,298.333,696.586,306.667,696.586,315C696.586,323.333,696.586,331.667,696.934,339.337C697.282,347.007,697.979,354.013,698.327,357.516L698.675,361.02" id="my-svg-L_GRD_MRG_0" class="edge-thickness-normal edge-pattern-solid edge-thickness-normal edge-pattern-solid flowchart-link" style=";" data-edge="true" data-et="edge" data-id="L_GRD_MRG_0" data-points="W3sieCI6Njk2LjU4NTkzNzUsInkiOjI2NX0seyJ4Ijo2OTYuNTg1OTM3NSwieSI6MjkwfSx7IngiOjY5Ni41ODU5Mzc1LCJ5IjozMTV9LHsieCI6Njk2LjU4NTkzNzUsInkiOjM0MH0seyJ4Ijo2OTkuMDcwNTM3ODYwNTc2OSwieSI6MzY1fV0=" data-look="classic" marker-end="url(#my-svg_flowchart-v2-pointEnd)"/><path d="M387.551,516L370.934,521.333C354.318,526.667,321.085,537.333,304.468,546.833C287.852,556.333,287.852,564.667,287.852,573C287.852,581.333,287.852,589.667,280.586,597.688C273.321,605.708,258.791,613.417,251.526,617.271L244.26,621.125" id="my-svg-L_TAG_UI_0" class="edge-thickness-normal edge-pattern-solid edge-thickness-normal edge-pattern-solid flowchart-link" style=";" data-edge="true" data-et="edge" data-id="L_TAG_UI_0" data-points="W3sieCI6Mzg3LjU1MDc4MTI1LCJ5Ijo1MTZ9LHsieCI6Mjg3Ljg1MTU2MjUsInkiOjU0OH0seyJ4IjoyODcuODUxNTYyNSwieSI6NTczfSx7IngiOjI4Ny44NTE1NjI1LCJ5Ijo1OTh9LHsieCI6MjQwLjcyNjc4Nzg2MDU3NjksInkiOjYyM31d" data-look="classic" marker-end="url(#my-svg_flowchart-v2-pointEnd)"/><path d="M443.421,516L442.324,521.333C441.228,526.667,439.034,537.333,437.937,546.833C436.84,556.333,436.84,564.667,436.84,573C436.84,581.333,436.84,589.667,436.84,597.333C436.84,605,436.84,612,436.84,615.5L436.84,619" id="my-svg-L_TAG_AGENT_0" class="edge-thickness-normal edge-pattern-solid edge-thickness-normal edge-pattern-solid flowchart-link" style=";" data-edge="true" data-et="edge" data-id="L_TAG_AGENT_0" data-points="W3sieCI6NDQzLjQyMTM4NjcxODc1LCJ5Ijo1MTZ9LHsieCI6NDM2LjgzOTg0Mzc1LCJ5Ijo1NDh9LHsieCI6NDM2LjgzOTg0Mzc1LCJ5Ijo1NzN9LHsieCI6NDM2LjgzOTg0Mzc1LCJ5Ijo1OTh9LHsieCI6NDM2LjgzOTg0Mzc1LCJ5Ijo2MjN9XQ==" data-look="classic" marker-end="url(#my-svg_flowchart-v2-pointEnd)"/><path d="M526.926,515.19L550.564,520.658C574.202,526.126,621.478,537.063,645.116,546.698C668.754,556.333,668.754,564.667,668.754,573C668.754,581.333,668.754,589.667,668.754,597.333C668.754,605,668.754,612,668.754,615.5L668.754,619" id="my-svg-L_TAG_ROUTE_0" class="edge-thickness-normal edge-pattern-solid edge-thickness-normal edge-pattern-solid flowchart-link" style=";" data-edge="true" data-et="edge" data-id="L_TAG_ROUTE_0" data-points="W3sieCI6NTI2LjkyNjQ1ODgxNjI3OCwieSI6NTE1LjE4OTU4NzAxMzg3Njd9LHsieCI6NjY4Ljc1MzkwNjI1LCJ5Ijo1NDh9LHsieCI6NjY4Ljc1MzkwNjI1LCJ5Ijo1NzN9LHsieCI6NjY4Ljc1MzkwNjI1LCJ5Ijo1OTh9LHsieCI6NjY4Ljc1MzkwNjI1LCJ5Ijo2MjN9XQ==" data-look="classic" marker-end="url(#my-svg_flowchart-v2-pointEnd)"/><path d="M809.168,417.684L827.51,422.07C845.853,426.456,882.538,435.228,900.88,448.281C919.223,461.333,919.223,478.667,919.223,496C919.223,513.333,919.223,530.667,919.223,543.5C919.223,556.333,919.223,564.667,919.223,573C919.223,581.333,919.223,589.667,919.223,597.333C919.223,605,919.223,612,919.223,615.5L919.223,619" id="my-svg-L_MRG_MET_0" class="edge-thickness-normal edge-pattern-solid edge-thickness-normal edge-pattern-solid flowchart-link" style=";" data-edge="true" data-et="edge" data-id="L_MRG_MET_0" data-points="W3sieCI6ODA5LjE2Nzk2ODc1LCJ5Ijo0MTcuNjg0MjkzNzIwMzYyMX0seyJ4Ijo5MTkuMjIyNjU2MjUsInkiOjQ0NH0seyJ4Ijo5MTkuMjIyNjU2MjUsInkiOjQ5Nn0seyJ4Ijo5MTkuMjIyNjU2MjUsInkiOjU0OH0seyJ4Ijo5MTkuMjIyNjU2MjUsInkiOjU3M30seyJ4Ijo5MTkuMjIyNjU2MjUsInkiOjU5OH0seyJ4Ijo5MTkuMjIyNjU2MjUsInkiOjYyM31d" data-look="classic" marker-end="url(#my-svg_flowchart-v2-pointEnd)"/><path d="M143.172,523L143.172,527.167C143.172,531.333,143.172,539.667,143.172,548C143.172,556.333,143.172,564.667,143.172,573C143.172,581.333,143.172,589.667,146.465,597.504C149.759,605.341,156.346,612.682,159.64,616.352L162.933,620.023" id="my-svg-L_TEE_UI_0" class="edge-thickness-normal edge-pattern-solid edge-thickness-normal edge-pattern-solid flowchart-link" style=";" data-edge="true" data-et="edge" data-id="L_TEE_UI_0" data-points="W3sieCI6MTQzLjE3MTg3NSwieSI6NTIzfSx7IngiOjE0My4xNzE4NzUsInkiOjU0OH0seyJ4IjoxNDMuMTcxODc1LCJ5Ijo1NzN9LHsieCI6MTQzLjE3MTg3NSwieSI6NTk4fSx7IngiOjE2NS42MDQ2NDI0Mjc4ODQ2LCJ5Ijo2MjN9XQ==" data-look="classic" marker-end="url(#my-svg_flowchart-v2-pointEnd)"/></g><g class="edgeLabels"><g class="edgeLabel"><g class="label" data-id="L_RACE_TAG_0" transform="translate(0, 0)"><foreignObject width="0" height="0"><div xmlns="http://www.w3.org/1999/xhtml" class="labelBkg" style="display: table-cell; white-space: nowrap; line-height: 1.5; max-width: 200px; text-align: center;"><span class="edgeLabel"></span></div></foreignObject></g></g><g class="edgeLabel"><g class="label" data-id="L_FB_TAG_0" transform="translate(0, 0)"><foreignObject width="0" height="0"><div xmlns="http://www.w3.org/1999/xhtml" class="labelBkg" style="display: table-cell; white-space: nowrap; line-height: 1.5; max-width: 200px; text-align: center;"><span class="edgeLabel"></span></div></foreignObject></g></g><g class="edgeLabel"><g class="label" data-id="L_MRG_TAG_0" transform="translate(0, 0)"><foreignObject width="0" height="0"><div xmlns="http://www.w3.org/1999/xhtml" class="labelBkg" style="display: table-cell; white-space: nowrap; line-height: 1.5; max-width: 200px; text-align: center;"><span class="edgeLabel"></span></div></foreignObject></g></g><g class="edgeLabel"><g class="label" data-id="L_PA_RACE_0" transform="translate(0, 0)"><foreignObject width="0" height="0"><div xmlns="http://www.w3.org/1999/xhtml" class="labelBkg" style="display: table-cell; white-space: nowrap; line-height: 1.5; max-width: 200px; text-align: center;"><span class="edgeLabel"></span></div></foreignObject></g></g><g class="edgeLabel"><g class="label" data-id="L_PB_RACE_0" transform="translate(0, 0)"><foreignObject width="0" height="0"><div xmlns="http://www.w3.org/1999/xhtml" class="labelBkg" style="display: table-cell; white-space: nowrap; line-height: 1.5; max-width: 200px; text-align: center;"><span class="edgeLabel"></span></div></foreignObject></g></g><g class="edgeLabel"><g class="label" data-id="L_PA_ASM_0" transform="translate(0, 0)"><foreignObject width="0" height="0"><div xmlns="http://www.w3.org/1999/xhtml" class="labelBkg" style="display: table-cell; white-space: nowrap; line-height: 1.5; max-width: 200px; text-align: center;"><span class="edgeLabel"></span></div></foreignObject></g></g><g class="edgeLabel"><g class="label" data-id="L_PB_ASM_0" transform="translate(0, 0)"><foreignObject width="0" height="0"><div xmlns="http://www.w3.org/1999/xhtml" class="labelBkg" style="display: table-cell; white-space: nowrap; line-height: 1.5; max-width: 200px; text-align: center;"><span class="edgeLabel"></span></div></foreignObject></g></g><g class="edgeLabel"><g class="label" data-id="L_ASM_MRG_0" transform="translate(0, 0)"><foreignObject width="0" height="0"><div xmlns="http://www.w3.org/1999/xhtml" class="labelBkg" style="display: table-cell; white-space: nowrap; line-height: 1.5; max-width: 200px; text-align: center;"><span class="edgeLabel"></span></div></foreignObject></g></g><g class="edgeLabel"><g class="label" data-id="L_PC_FB_0" transform="translate(0, 0)"><foreignObject width="0" height="0"><div xmlns="http://www.w3.org/1999/xhtml" class="labelBkg" style="display: table-cell; white-space: nowrap; line-height: 1.5; max-width: 200px; text-align: center;"><span class="edgeLabel"></span></div></foreignObject></g></g><g class="edgeLabel"><g class="label" data-id="L_GRD_MRG_0" transform="translate(0, 0)"><foreignObject width="0" height="0"><div xmlns="http://www.w3.org/1999/xhtml" class="labelBkg" style="display: table-cell; white-space: nowrap; line-height: 1.5; max-width: 200px; text-align: center;"><span class="edgeLabel"></span></div></foreignObject></g></g><g class="edgeLabel"><g class="label" data-id="L_TAG_UI_0" transform="translate(0, 0)"><foreignObject width="0" height="0"><div xmlns="http://www.w3.org/1999/xhtml" class="labelBkg" style="display: table-cell; white-space: nowrap; line-height: 1.5; max-width: 200px; text-align: center;"><span class="edgeLabel"></span></div></foreignObject></g></g><g class="edgeLabel"><g class="label" data-id="L_TAG_AGENT_0" transform="translate(0, 0)"><foreignObject width="0" height="0"><div xmlns="http://www.w3.org/1999/xhtml" class="labelBkg" style="display: table-cell; white-space: nowrap; line-height: 1.5; max-width: 200px; text-align: center;"><span class="edgeLabel"></span></div></foreignObject></g></g><g class="edgeLabel"><g class="label" data-id="L_TAG_ROUTE_0" transform="translate(0, 0)"><foreignObject width="0" height="0"><div xmlns="http://www.w3.org/1999/xhtml" class="labelBkg" style="display: table-cell; white-space: nowrap; line-height: 1.5; max-width: 200px; text-align: center;"><span class="edgeLabel"></span></div></foreignObject></g></g><g class="edgeLabel"><g class="label" data-id="L_MRG_MET_0" transform="translate(0, 0)"><foreignObject width="0" height="0"><div xmlns="http://www.w3.org/1999/xhtml" class="labelBkg" style="display: table-cell; white-space: nowrap; line-height: 1.5; max-width: 200px; text-align: center;"><span class="edgeLabel"></span></div></foreignObject></g></g><g class="edgeLabel"><g class="label" data-id="L_TEE_UI_0" transform="translate(0, 0)"><foreignObject width="0" height="0"><div xmlns="http://www.w3.org/1999/xhtml" class="labelBkg" style="display: table-cell; white-space: nowrap; line-height: 1.5; max-width: 200px; text-align: center;"><span class="edgeLabel"></span></div></foreignObject></g></g></g><g class="nodes"><g class="node default provider" id="my-svg-flowchart-PA-0" data-look="classic" transform="translate(301.55078125, 60)"><rect class="basic label-container" style="fill:#0f172a !important;stroke:#38bdf8 !important;stroke-width:2px !important" x="-85.4296875" y="-27" width="170.859375" height="54"/><g class="label" style="color:#e0f2fe !important" transform="translate(-55.4296875, -12)"><rect/><foreignObject width="110.859375" height="24"><div style="color: rgb(224, 242, 254) !important; display: table-cell; white-space: nowrap; line-height: 1.5; max-width: 200px; text-align: center;" xmlns="http://www.w3.org/1999/xhtml"><span style="color:#e0f2fe !important" class="nodeLabel"><p>Provider A body</p></span></div></foreignObject></g></g><g class="node default provider" id="my-svg-flowchart-PB-1" data-look="classic" transform="translate(823.703125, 60)"><rect class="basic label-container" style="fill:#0f172a !important;stroke:#38bdf8 !important;stroke-width:2px !important" x="-86.1171875" y="-27" width="172.234375" height="54"/><g class="label" style="color:#e0f2fe !important" transform="translate(-56.1171875, -12)"><rect/><foreignObject width="112.234375" height="24"><div style="color: rgb(224, 242, 254) !important; display: table-cell; white-space: nowrap; line-height: 1.5; max-width: 200px; text-align: center;" xmlns="http://www.w3.org/1999/xhtml"><span style="color:#e0f2fe !important" class="nodeLabel"><p>Provider B body</p></span></div></foreignObject></g></g><g class="node default provider" id="my-svg-flowchart-PC-2" data-look="classic" transform="translate(1048.71875, 60)"><rect class="basic label-container" style="fill:#0f172a !important;stroke:#38bdf8 !important;stroke-width:2px !important" x="-80.078125" y="-27" width="160.15625" height="54"/><g class="label" style="color:#e0f2fe !important" transform="translate(-50.078125, -12)"><rect/><foreignObject width="100.15625" height="24"><div style="color: rgb(224, 242, 254) !important; display: table-cell; white-space: nowrap; line-height: 1.5; max-width: 200px; text-align: center;" xmlns="http://www.w3.org/1999/xhtml"><span style="color:#e0f2fe !important" class="nodeLabel"><p>Backup model</p></span></div></foreignObject></g></g><g class="node default optional" id="my-svg-flowchart-ASM-3" data-look="classic" transform="translate(447.0234375, 226)"><rect class="basic label-container" style="fill:#312e81 !important;stroke:#a5b4fc !important;stroke-width:2px !important" x="-107.4453125" y="-39" width="214.890625" height="78"/><g class="label" style="color:#eef2ff !important" transform="translate(-77.4453125, -24)"><rect/><foreignObject width="154.890625" height="48"><div style="color: rgb(238, 242, 255) !important; display: table-cell; white-space: nowrap; line-height: 1.5; max-width: 200px; text-align: center;" xmlns="http://www.w3.org/1999/xhtml"><span style="color:#eef2ff !important" class="nodeLabel"><p>llm-stream-assemble<br />bytes → StreamEvent</p></span></div></foreignObject></g></g><g class="node default optional" id="my-svg-flowchart-GRD-4" data-look="classic" transform="translate(696.5859375, 226)"><rect class="basic label-container" style="fill:#312e81 !important;stroke:#a5b4fc !important;stroke-width:2px !important" x="-92.1171875" y="-39" width="184.234375" height="78"/><g class="label" style="color:#eef2ff !important" transform="translate(-62.1171875, -24)"><rect/><foreignObject width="124.234375" height="48"><div style="color: rgb(238, 242, 255) !important; display: table-cell; white-space: nowrap; line-height: 1.5; max-width: 200px; text-align: center;" xmlns="http://www.w3.org/1999/xhtml"><span style="color:#eef2ff !important" class="nodeLabel"><p>llm-stream-guard<br />filter / redact</p></span></div></foreignObject></g></g><g class="node default mux" id="my-svg-flowchart-RACE-5" data-look="classic" transform="translate(296.890625, 392)"><rect class="basic label-container" style="fill:#042f2e !important;stroke:#2dd4bf !important;stroke-width:2px !important" x="-51.515625" y="-27" width="103.03125" height="54"/><g class="label" style="color:#ccfbf1 !important" transform="translate(-21.515625, -12)"><rect/><foreignObject width="43.03125" height="24"><div style="color: rgb(204, 251, 241) !important; display: table-cell; white-space: nowrap; line-height: 1.5; max-width: 200px; text-align: center;" xmlns="http://www.w3.org/1999/xhtml"><span style="color:#ccfbf1 !important" class="nodeLabel"><p>race()</p></span></div></foreignObject></g></g><g class="node default mux" id="my-svg-flowchart-FB-6" data-look="classic" transform="translate(1048.71875, 392)"><rect class="basic label-container" style="fill:#042f2e !important;stroke:#2dd4bf !important;stroke-width:2px !important" x="-64.4140625" y="-27" width="128.828125" height="54"/><g class="label" style="color:#ccfbf1 !important" transform="translate(-34.4140625, -12)"><rect/><foreignObject width="68.828125" height="24"><div style="color: rgb(204, 251, 241) !important; display: table-cell; white-space: nowrap; line-height: 1.5; max-width: 200px; text-align: center;" xmlns="http://www.w3.org/1999/xhtml"><span style="color:#ccfbf1 !important" class="nodeLabel"><p>fallback()</p></span></div></foreignObject></g></g><g class="node default mux" id="my-svg-flowchart-MRG-7" data-look="classic" transform="translate(701.75390625, 392)"><rect class="basic label-container" style="fill:#042f2e !important;stroke:#2dd4bf !important;stroke-width:2px !important" x="-107.4140625" y="-27" width="214.828125" height="54"/><g class="label" style="color:#ccfbf1 !important" transform="translate(-77.4140625, -12)"><rect/><foreignObject width="154.828125" height="24"><div style="color: rgb(204, 251, 241) !important; display: table-cell; white-space: nowrap; line-height: 1.5; max-width: 200px; text-align: center;" xmlns="http://www.w3.org/1999/xhtml"><span style="color:#ccfbf1 !important" class="nodeLabel"><p>merge() / ensemble()</p></span></div></foreignObject></g></g><g class="node default mux" id="my-svg-flowchart-TEE-8" data-look="classic" transform="translate(143.171875, 496)"><rect class="basic label-container" style="fill:#042f2e !important;stroke:#2dd4bf !important;stroke-width:2px !important" x="-47.7734375" y="-27" width="95.546875" height="54"/><g class="label" style="color:#ccfbf1 !important" transform="translate(-17.7734375, -12)"><rect/><foreignObject width="35.546875" height="24"><div style="color: rgb(204, 251, 241) !important; display: table-cell; white-space: nowrap; line-height: 1.5; max-width: 200px; text-align: center;" xmlns="http://www.w3.org/1999/xhtml"><span style="color:#ccfbf1 !important" class="nodeLabel"><p>tee()</p></span></div></foreignObject></g></g><g class="node default io" id="my-svg-flowchart-TAG-9" data-look="classic" transform="translate(446.5703125, 496)"><g class="basic label-container outer-path"><path d="M-74.328125 -19.5 C-15.819813574759621 -19.5, 42.68849785048076 -19.5, 74.328125 -19.5 C74.328125 -19.5, 74.328125 -19.5, 74.328125 -19.5 C74.70933021444762 -19.4877754907436, 75.09053542889525 -19.475550981487203, 75.5774942896239 -19.45993515863156 C75.98000626616181 -19.421105312346423, 76.3825182426997 -19.382275466061287, 76.82172965284786 -19.3399052695533 C77.26489567994251 -19.268257623096506, 77.70806170703716 -19.196609976639714, 78.05571825967675 -19.140403561325776 C78.35552464338345 -19.071974710664215, 78.65533102709014 -19.00354586000265, 79.27438938623538 -18.862249829261074 C79.53326349478074 -18.785417352702737, 79.7921376033261 -18.7085848761444, 80.4727352514606 -18.50658706670804 C80.8578769263237 -18.364851370147807, 81.24301860118679 -18.223115673587575, 81.6458315951478 -18.074876768247425 C82.04863072009925 -17.896569544242926, 82.4514298450507 -17.718262320238424, 82.78885791279238 -17.568892924097174 C83.19458275528852 -17.357226533646102, 83.60030759778466 -17.145560143195027, 83.89711726407678 -16.990714730406097 C84.1651395804609 -16.828238027140085, 84.43316189684501 -16.665761323874072, 84.9660555736057 -16.342718045390892 C85.23546102017835 -16.15479246823563, 85.504866466751 -15.966866891080365, 85.99128034457871 -15.627565626425154 C86.26938332615369 -15.405785899250263, 86.54748630772865 -15.184006172075371, 86.96857870850187 -14.848196188198123 C87.15928920872362 -14.67499795782006, 87.34999970894536 -14.501799727441995, 87.89393473676799 -14.007812326905688 C88.10109998857321 -13.793897195833303, 88.30826524037843 -13.579982064760916, 88.76354594296865 -13.10986736009568 C89.01681975198794 -12.812357532333618, 89.27009356100724 -12.514847704571554, 89.57383890812658 -12.158051136245305 C89.77165036140202 -11.893001809850333, 89.96946181467746 -11.627952483455358, 90.32148396464063 -11.156274872382312 C90.54549568255075 -10.812132718103548, 90.76950740046085 -10.467990563824785, 91.00340887860425 -10.108655082055241 C91.2468341793008 -9.676428811183905, 91.49025947999738 -9.244202540312568, 91.6168114742735 -9.019496659696287 C91.75310425216345 -8.736481790209517, 91.88939703005342 -8.453466920722748, 92.15917114880834 -7.893275190886684 C92.32886953309148 -7.474116900812288, 92.4985679173746 -7.054958610737893, 92.62825922997033 -6.734618561215508 C92.78246422834349 -6.270177675345491, 92.93666922671665 -5.805736789475474, 93.02214813421489 -5.548287939305138 C93.10000638452146 -5.25138068690702, 93.17786463482804 -4.954473434508903, 93.33921928754556 -4.339158212148133 C93.40939174376457 -3.9788374804173556, 93.4795641999836 -3.618516748686578, 93.57816977658177 -3.1121979531509023 C93.62540961080926 -2.745815127442945, 93.67264944503674 -2.379432301734987, 93.73801770250937 -1.872449005199798 C93.76274583298849 -1.4872884127998318, 93.7874739634676 -1.1021278203998657, 93.81810621591342 -0.6250057626472757 C93.81810621591342 -0.18713619366662254, 93.81810621591342 0.2507333753140306, 93.81810621591342 0.625005762647271 C93.78965127076525 1.0682145017482574, 93.76119632561709 1.5114232408492438, 93.73801770250937 1.8724490051997846 C93.70229852253986 2.1494799114933194, 93.66657934257037 2.426510817786854, 93.57816977658177 3.1121979531508885 C93.52538579536576 3.3832325407967265, 93.47260181414975 3.654267128442564, 93.33921928754556 4.339158212148129 C93.27355173857356 4.589577036874113, 93.20788418960157 4.839995861600097, 93.02214813421489 5.548287939305125 C92.8755679785714 5.989764013727083, 92.72898782292792 6.43124008814904, 92.62825922997033 6.734618561215495 C92.49194686973621 7.071312726413942, 92.35563450950211 7.408006891612389, 92.15917114880834 7.893275190886679 C92.02000970864258 8.182246898968723, 91.8808482684768 8.471218607050766, 91.6168114742735 9.019496659696284 C91.38997815054036 9.422262195349232, 91.1631448268072 9.825027731002182, 91.00340887860425 10.108655082055236 C90.78417864866698 10.44545158679842, 90.56494841872971 10.782248091541602, 90.32148396464065 11.156274872382301 C90.16844443429437 11.361333900858272, 90.01540490394811 11.566392929334242, 89.57383890812659 12.158051136245302 C89.37445651820892 12.392257036621976, 89.17507412829126 12.62646293699865, 88.76354594296866 13.10986736009567 C88.55044282130794 13.329913829302036, 88.33733969964722 13.549960298508404, 87.89393473676799 14.007812326905684 C87.68921645975712 14.193732049538163, 87.48449818274626 14.37965177217064, 86.9685787085019 14.848196188198111 C86.6676584575268 15.088172080526567, 86.36673820655169 15.328147972855023, 85.99128034457871 15.627565626425152 C85.61665046383078 15.888891213768748, 85.24202058308286 16.150216801112343, 84.9660555736057 16.34271804539089 C84.65412152060124 16.53181430145017, 84.34218746759676 16.72091055750945, 83.89711726407678 16.990714730406093 C83.53710359354154 17.17853363172457, 83.17708992300629 17.36635253304304, 82.78885791279238 17.56889292409717 C82.44730380141998 17.720088797359008, 82.10574969004756 17.87128467062084, 81.6458315951478 18.07487676824742 C81.31733574469828 18.195766277795197, 80.98883989424877 18.31665578734297, 80.47273525146062 18.506587066708033 C80.01634876745716 18.64204017953872, 79.55996228345369 18.777493292369414, 79.27438938623541 18.86224982926107 C78.8919620875379 18.94953636461743, 78.5095347888404 19.03682289997379, 78.05571825967677 19.140403561325773 C77.61681460425784 19.211362100585223, 77.17791094883891 19.282320639844674, 76.82172965284788 19.3399052695533 C76.36008501985687 19.38443957208904, 75.89844038686584 19.428973874624784, 75.5774942896239 19.45993515863156 C75.23361731790983 19.47096262379851, 74.88974034619575 19.481990088965457, 74.328125 19.5 C74.328125 19.5, 74.328125 19.5, 74.328125 19.5 C27.430226211227605 19.5, -19.46767257754479 19.5, -74.328125 19.5 C-74.72844855950294 19.48716240262928, -75.12877211900589 19.474324805258558, -75.5774942896239 19.45993515863156 C-75.91203815086926 19.427662114685077, -76.24658201211463 19.395389070738595, -76.82172965284786 19.3399052695533 C-77.2868804799759 19.264703291121776, -77.75203130710395 19.18950131269025, -78.05571825967675 19.140403561325773 C-78.36393905158758 19.07005417690076, -78.6721598434984 18.999704792475754, -79.27438938623538 18.862249829261074 C-79.67518225091867 18.743296610827755, -80.07597511560193 18.624343392394437, -80.47273525146059 18.506587066708043 C-80.78344589454807 18.39224267787415, -81.09415653763556 18.27789828904026, -81.6458315951478 18.074876768247425 C-81.89096111174567 17.9663652027583, -82.13609062834354 17.857853637269177, -82.78885791279238 17.568892924097174 C-83.22779595284617 17.339899229754344, -83.66673399289996 17.11090553541152, -83.89711726407678 16.990714730406097 C-84.29379495452906 16.750246383317066, -84.69047264498133 16.509778036228035, -84.96605557360569 16.3427180453909 C-85.28385822136023 16.121032675772213, -85.6016608691148 15.899347306153528, -85.99128034457871 15.627565626425156 C-86.19723525241552 15.463322068115568, -86.40319016025234 15.29907850980598, -86.96857870850187 14.848196188198125 C-87.24886760571918 14.593645227783188, -87.52915650293652 14.33909426736825, -87.89393473676797 14.007812326905697 C-88.23298465295993 13.657715451921701, -88.57203456915187 13.307618576937706, -88.76354594296865 13.109867360095677 C-88.95396072850362 12.886195318098071, -89.14437551403859 12.662523276100464, -89.57383890812658 12.158051136245307 C-89.74337103521184 11.930893530645564, -89.9129031622971 11.703735925045821, -90.32148396464063 11.156274872382316 C-90.4681325831645 10.930983213661767, -90.61478120168837 10.70569155494122, -91.00340887860425 10.108655082055249 C-91.24159635187928 9.685729104158362, -91.47978382515433 9.262803126261476, -91.6168114742735 9.019496659696289 C-91.75440343707524 8.733784004942084, -91.89199539987699 8.44807135018788, -92.15917114880834 7.893275190886686 C-92.33742726124842 7.452979146812189, -92.51568337368852 7.012683102737691, -92.62825922997033 6.73461856121551 C-92.7437373517177 6.386816857452499, -92.85921547346507 6.039015153689487, -93.02214813421489 5.5482879393051325 C-93.08835018422516 5.295830830465974, -93.15455223423544 5.043373721626815, -93.33921928754556 4.339158212148136 C-93.3934954615973 4.060461529665942, -93.44777163564902 3.7817648471837493, -93.57816977658177 3.112197953150904 C-93.6329281876907 2.6875025298614643, -93.68768659879962 2.262807106572024, -93.73801770250937 1.872449005199809 C-93.76604916546225 1.4358363431190602, -93.79408062841513 0.9992236810383113, -93.81810621591342 0.6250057626472781 C-93.81810621591342 0.18040376883240322, -93.81810621591342 -0.2641982249824717, -93.81810621591342 -0.6250057626472687 C-93.78705440713789 -1.1086627488951113, -93.75600259836234 -1.5923197351429539, -93.73801770250937 -1.8724490051997822 C-93.68604006732028 -2.2755772795813654, -93.63406243213117 -2.6787055539629483, -93.57816977658177 -3.112197953150895 C-93.48290320013695 -3.6013716885970255, -93.38763662369212 -4.090545424043156, -93.33921928754556 -4.339158212148126 C-93.23809576066641 -4.724786047352132, -93.13697223378725 -5.110413882556139, -93.02214813421489 -5.548287939305123 C-92.91177948838235 -5.880700715697058, -92.80141084254983 -6.2131134920889926, -92.62825922997033 -6.734618561215485 C-92.48060352388794 -7.099331009967873, -92.33294781780553 -7.46404345872026, -92.15917114880834 -7.893275190886676 C-91.98345888152167 -8.258145473547675, -91.80774661423501 -8.623015756208671, -91.6168114742735 -9.019496659696282 C-91.42701067949011 -9.35650719024875, -91.23720988470672 -9.69351772080122, -91.00340887860425 -10.108655082055243 C-90.76335964475071 -10.477435167499127, -90.52331041089717 -10.846215252943013, -90.32148396464063 -11.156274872382308 C-90.0837558869605 -11.47480883900028, -89.84602780928037 -11.79334280561825, -89.57383890812659 -12.158051136245302 C-89.33372112573383 -12.440107146532714, -89.09360334334107 -12.722163156820127, -88.76354594296866 -13.10986736009567 C-88.4527609928093 -13.430778337054143, -88.14197604264994 -13.751689314012614, -87.89393473676799 -14.007812326905677 C-87.54262428418767 -14.326863184773908, -87.19131383160736 -14.64591404264214, -86.9685787085019 -14.848196188198107 C-86.64524854521693 -15.106043389240867, -86.32191838193197 -15.363890590283628, -85.99128034457871 -15.627565626425149 C-85.72952389426544 -15.810155594909578, -85.46776744395218 -15.992745563394008, -84.96605557360571 -16.342718045390885 C-84.74160872378262 -16.47877904474974, -84.51716187395952 -16.614840044108593, -83.89711726407678 -16.99071473040609 C-83.64028027536506 -17.124706422905057, -83.38344328665333 -17.25869811540402, -82.7888579127924 -17.56889292409717 C-82.36764403645732 -17.75535181228501, -81.94643016012225 -17.941810700472846, -81.64583159514781 -18.07487676824742 C-81.23740688348468 -18.2251808375761, -80.82898217182155 -18.375484906904777, -80.47273525146062 -18.506587066708033 C-80.02483322726853 -18.639522036402543, -79.57693120307646 -18.77245700609705, -79.27438938623541 -18.862249829261067 C-78.89366607195326 -18.94914744129416, -78.51294275767111 -19.03604505332725, -78.05571825967677 -19.140403561325773 C-77.67905381669257 -19.201299747391076, -77.3023893737084 -19.262195933456375, -76.82172965284788 -19.3399052695533 C-76.57088526147064 -19.364103926304942, -76.32004087009341 -19.388302583056586, -75.5774942896239 -19.45993515863156 C-75.10826958659236 -19.474982281567303, -74.6390448835608 -19.490029404503044, -74.328125 -19.5 C-74.328125 -19.5, -74.328125 -19.5, -74.328125 -19.5" stroke="none" stroke-width="0" fill="#134e4a" style="fill:#134e4a !important;stroke:#5eead4 !important;stroke-width:2px !important"/><path d="M-74.328125 -19.5 C-25.58352482582493 -19.5, 23.16107534835014 -19.5, 74.328125 -19.5 M-74.328125 -19.5 C-23.63906147485111 -19.5, 27.050002050297778 -19.5, 74.328125 -19.5 M74.328125 -19.5 C74.328125 -19.5, 74.328125 -19.5, 74.328125 -19.5 M74.328125 -19.5 C74.328125 -19.5, 74.328125 -19.5, 74.328125 -19.5 M74.328125 -19.5 C74.69998820219608 -19.488075070893384, 75.07185140439215 -19.47615014178677, 75.5774942896239 -19.45993515863156 M74.328125 -19.5 C74.79160429391722 -19.485137121151794, 75.25508358783443 -19.470274242303585, 75.5774942896239 -19.45993515863156 M75.5774942896239 -19.45993515863156 C76.04803594250404 -19.414542571287345, 76.51857759538419 -19.369149983943128, 76.82172965284786 -19.3399052695533 M75.5774942896239 -19.45993515863156 C76.0033827261614 -19.418850213364568, 76.42927116269891 -19.37776526809758, 76.82172965284786 -19.3399052695533 M76.82172965284786 -19.3399052695533 C77.30877539345961 -19.26116349130732, 77.79582113407136 -19.182421713061345, 78.05571825967675 -19.140403561325776 M76.82172965284786 -19.3399052695533 C77.10721244118012 -19.293750626287828, 77.39269522951237 -19.24759598302236, 78.05571825967675 -19.140403561325776 M78.05571825967675 -19.140403561325776 C78.48811062441735 -19.041712825697612, 78.92050298915792 -18.943022090069444, 79.27438938623538 -18.862249829261074 M78.05571825967675 -19.140403561325776 C78.34734260674877 -19.0738422071333, 78.63896695382077 -19.007280852940827, 79.27438938623538 -18.862249829261074 M79.27438938623538 -18.862249829261074 C79.74128111520237 -18.72367881486837, 80.20817284416934 -18.585107800475672, 80.4727352514606 -18.50658706670804 M79.27438938623538 -18.862249829261074 C79.72235295349059 -18.72929659390848, 80.1703165207458 -18.59634335855588, 80.4727352514606 -18.50658706670804 M80.4727352514606 -18.50658706670804 C80.8267158655035 -18.376318928579327, 81.18069647954641 -18.24605079045061, 81.6458315951478 -18.074876768247425 M80.4727352514606 -18.50658706670804 C80.72230499277403 -18.414743094907298, 80.97187473408746 -18.32289912310656, 81.6458315951478 -18.074876768247425 M81.6458315951478 -18.074876768247425 C82.04616850092222 -17.897659495633455, 82.44650540669664 -17.720442223019486, 82.78885791279238 -17.568892924097174 M81.6458315951478 -18.074876768247425 C82.02132051254792 -17.908658962997375, 82.39680942994804 -17.742441157747322, 82.78885791279238 -17.568892924097174 M82.78885791279238 -17.568892924097174 C83.14163483026796 -17.384849432214565, 83.49441174774354 -17.200805940331954, 83.89711726407678 -16.990714730406097 M82.78885791279238 -17.568892924097174 C83.07170156505163 -17.421333571883533, 83.35454521731087 -17.27377421966989, 83.89711726407678 -16.990714730406097 M83.89711726407678 -16.990714730406097 C84.16427753071773 -16.828760606760365, 84.43143779735865 -16.666806483114634, 84.9660555736057 -16.342718045390892 M83.89711726407678 -16.990714730406097 C84.14880378658374 -16.8381408813882, 84.4004903090907 -16.6855670323703, 84.9660555736057 -16.342718045390892 M84.9660555736057 -16.342718045390892 C85.26364335976128 -16.1351336881364, 85.56123114591685 -15.927549330881908, 85.99128034457871 -15.627565626425154 M84.9660555736057 -16.342718045390892 C85.34596819078492 -16.077707449798808, 85.72588080796412 -15.81269685420672, 85.99128034457871 -15.627565626425154 M85.99128034457871 -15.627565626425154 C86.31177671435918 -15.37197830029181, 86.63227308413965 -15.116390974158465, 86.96857870850187 -14.848196188198123 M85.99128034457871 -15.627565626425154 C86.27902922265388 -15.398093553479441, 86.56677810072904 -15.168621480533728, 86.96857870850187 -14.848196188198123 M86.96857870850187 -14.848196188198123 C87.33346690326323 -14.516814384128438, 87.6983550980246 -14.185432580058754, 87.89393473676799 -14.007812326905688 M86.96857870850187 -14.848196188198123 C87.25693397593582 -14.586319563776902, 87.54528924336978 -14.324442939355679, 87.89393473676799 -14.007812326905688 M87.89393473676799 -14.007812326905688 C88.24047279803841 -13.649983327340019, 88.58701085930885 -13.292154327774348, 88.76354594296865 -13.10986736009568 M87.89393473676799 -14.007812326905688 C88.15291532756804 -13.740393604202701, 88.41189591836807 -13.472974881499717, 88.76354594296865 -13.10986736009568 M88.76354594296865 -13.10986736009568 C89.06647202886447 -12.754033142619852, 89.3693981147603 -12.398198925144024, 89.57383890812658 -12.158051136245305 M88.76354594296865 -13.10986736009568 C88.98679883667651 -12.847621807696902, 89.21005173038436 -12.585376255298122, 89.57383890812658 -12.158051136245305 M89.57383890812658 -12.158051136245305 C89.75997554738268 -11.908644997038811, 89.94611218663879 -11.659238857832317, 90.32148396464063 -11.156274872382312 M89.57383890812658 -12.158051136245305 C89.76117694167179 -11.907035238140661, 89.94851497521702 -11.65601934003602, 90.32148396464063 -11.156274872382312 M90.32148396464063 -11.156274872382312 C90.55239431842598 -10.801534560856078, 90.78330467221133 -10.446794249329846, 91.00340887860425 -10.108655082055241 M90.32148396464063 -11.156274872382312 C90.46353927253404 -10.938039772266778, 90.60559458042742 -10.719804672151245, 91.00340887860425 -10.108655082055241 M91.00340887860425 -10.108655082055241 C91.19248535169355 -9.772930658016154, 91.38156182478285 -9.437206233977067, 91.6168114742735 -9.019496659696287 M91.00340887860425 -10.108655082055241 C91.14873337960934 -9.85061671481925, 91.29405788061445 -9.592578347583258, 91.6168114742735 -9.019496659696287 M91.6168114742735 -9.019496659696287 C91.72811049303829 -8.788381865813717, 91.83940951180305 -8.557267071931147, 92.15917114880834 -7.893275190886684 M91.6168114742735 -9.019496659696287 C91.78210311186916 -8.676265037554424, 91.94739474946482 -8.333033415412562, 92.15917114880834 -7.893275190886684 M92.15917114880834 -7.893275190886684 C92.34003150194226 -7.446546621948863, 92.52089185507617 -6.999818053011041, 92.62825922997033 -6.734618561215508 M92.15917114880834 -7.893275190886684 C92.3060222296974 -7.530550181918193, 92.45287331058647 -7.167825172949702, 92.62825922997033 -6.734618561215508 M92.62825922997033 -6.734618561215508 C92.77602886327128 -6.289559969606766, 92.92379849657225 -5.844501377998024, 93.02214813421489 -5.548287939305138 M92.62825922997033 -6.734618561215508 C92.72284374966846 -6.449745057881422, 92.81742826936657 -6.164871554547338, 93.02214813421489 -5.548287939305138 M93.02214813421489 -5.548287939305138 C93.09799572995033 -5.259048184209945, 93.17384332568578 -4.969808429114751, 93.33921928754556 -4.339158212148133 M93.02214813421489 -5.548287939305138 C93.1207745040434 -5.172182846209966, 93.21940087387189 -4.796077753114795, 93.33921928754556 -4.339158212148133 M93.33921928754556 -4.339158212148133 C93.39921917278504 -4.031071482423679, 93.4592190580245 -3.7229847526992232, 93.57816977658177 -3.1121979531509023 M93.33921928754556 -4.339158212148133 C93.41952087388685 -3.9268265380318486, 93.49982246022816 -3.5144948639155644, 93.57816977658177 -3.1121979531509023 M93.57816977658177 -3.1121979531509023 C93.61494981892744 -2.826939207758812, 93.6517298612731 -2.5416804623667213, 93.73801770250937 -1.872449005199798 M93.57816977658177 -3.1121979531509023 C93.63955662489076 -2.6360936798707906, 93.70094347319973 -2.159989406590679, 93.73801770250937 -1.872449005199798 M93.73801770250937 -1.872449005199798 C93.76010445169472 -1.528430058534952, 93.78219120088006 -1.184411111870106, 93.81810621591342 -0.6250057626472757 M93.73801770250937 -1.872449005199798 C93.75965591744719 -1.5354163414903896, 93.78129413238503 -1.1983836777809813, 93.81810621591342 -0.6250057626472757 M93.81810621591342 -0.6250057626472757 C93.81810621591342 -0.2278492406646716, 93.81810621591342 0.1693072813179325, 93.81810621591342 0.625005762647271 M93.81810621591342 -0.6250057626472757 C93.81810621591342 -0.2571154381424087, 93.81810621591342 0.11077488636245825, 93.81810621591342 0.625005762647271 M93.81810621591342 0.625005762647271 C93.79763533571979 0.9438562454600619, 93.77716445552616 1.2627067282728528, 93.73801770250937 1.8724490051997846 M93.81810621591342 0.625005762647271 C93.78812489252985 1.091989074834856, 93.7581435691463 1.5589723870224408, 93.73801770250937 1.8724490051997846 M93.73801770250937 1.8724490051997846 C93.68799578661931 2.260409106898524, 93.63797387072924 2.648369208597263, 93.57816977658177 3.1121979531508885 M93.73801770250937 1.8724490051997846 C93.69552594961841 2.202006649676268, 93.65303419672748 2.5315642941527505, 93.57816977658177 3.1121979531508885 M93.57816977658177 3.1121979531508885 C93.5012542816925 3.5071427633117382, 93.42433878680322 3.9020875734725875, 93.33921928754556 4.339158212148129 M93.57816977658177 3.1121979531508885 C93.52447347664294 3.387917104619828, 93.47077717670409 3.6636362560887674, 93.33921928754556 4.339158212148129 M93.33921928754556 4.339158212148129 C93.22772866654806 4.764320270352384, 93.11623804555057 5.18948232855664, 93.02214813421489 5.548287939305125 M93.33921928754556 4.339158212148129 C93.2672961356938 4.613432361850093, 93.19537298384203 4.887706511552059, 93.02214813421489 5.548287939305125 M93.02214813421489 5.548287939305125 C92.87590418505576 5.988751413363418, 92.72966023589663 6.429214887421709, 92.62825922997033 6.734618561215495 M93.02214813421489 5.548287939305125 C92.93896386931692 5.798825691565078, 92.85577960441894 6.049363443825031, 92.62825922997033 6.734618561215495 M92.62825922997033 6.734618561215495 C92.52587948893955 6.987498500939149, 92.42349974790878 7.240378440662804, 92.15917114880834 7.893275190886679 M92.62825922997033 6.734618561215495 C92.44821554018652 7.179329955889423, 92.26817185040272 7.62404135056335, 92.15917114880834 7.893275190886679 M92.15917114880834 7.893275190886679 C91.96122821625171 8.304307925640797, 91.76328528369508 8.715340660394915, 91.6168114742735 9.019496659696284 M92.15917114880834 7.893275190886679 C92.01979826195709 8.182685972535348, 91.88042537510584 8.472096754184017, 91.6168114742735 9.019496659696284 M91.6168114742735 9.019496659696284 C91.42597729267187 9.35834207318628, 91.23514311107026 9.697187486676278, 91.00340887860425 10.108655082055236 M91.6168114742735 9.019496659696284 C91.41145036735954 9.384136100089044, 91.20608926044557 9.748775540481805, 91.00340887860425 10.108655082055236 M91.00340887860425 10.108655082055236 C90.819663866426 10.390936763205401, 90.63591885424773 10.673218444355566, 90.32148396464065 11.156274872382301 M91.00340887860425 10.108655082055236 C90.81249453731608 10.401950777952635, 90.62158019602794 10.695246473850036, 90.32148396464065 11.156274872382301 M90.32148396464065 11.156274872382301 C90.12142116884199 11.424340792656851, 89.92135837304335 11.692406712931401, 89.57383890812659 12.158051136245302 M90.32148396464065 11.156274872382301 C90.15276001524576 11.382349593503443, 89.98403606585089 11.608424314624587, 89.57383890812659 12.158051136245302 M89.57383890812659 12.158051136245302 C89.36419988342172 12.404305063462077, 89.15456085871685 12.650558990678853, 88.76354594296866 13.10986736009567 M89.57383890812659 12.158051136245302 C89.30878398513704 12.469399730841204, 89.04372906214748 12.780748325437106, 88.76354594296866 13.10986736009567 M88.76354594296866 13.10986736009567 C88.47697893136247 13.405771327168276, 88.19041191975626 13.701675294240884, 87.89393473676799 14.007812326905684 M88.76354594296866 13.10986736009567 C88.43543840101715 13.448665335290784, 88.10733085906563 13.787463310485897, 87.89393473676799 14.007812326905684 M87.89393473676799 14.007812326905684 C87.64811562461178 14.23105874054866, 87.40229651245556 14.454305154191635, 86.9685787085019 14.848196188198111 M87.89393473676799 14.007812326905684 C87.62275124697626 14.25409399721258, 87.35156775718453 14.500375667519476, 86.9685787085019 14.848196188198111 M86.9685787085019 14.848196188198111 C86.73220162206488 15.036700624373191, 86.49582453562785 15.225205060548271, 85.99128034457871 15.627565626425152 M86.9685787085019 14.848196188198111 C86.66693790735852 15.088746700111118, 86.36529710621515 15.329297212024125, 85.99128034457871 15.627565626425152 M85.99128034457871 15.627565626425152 C85.6252939732344 15.882861875780273, 85.2593076018901 16.138158125135394, 84.9660555736057 16.34271804539089 M85.99128034457871 15.627565626425152 C85.77060329072683 15.781500386236532, 85.54992623687494 15.935435146047912, 84.9660555736057 16.34271804539089 M84.9660555736057 16.34271804539089 C84.64350498384944 16.538250108418804, 84.32095439409316 16.733782171446716, 83.89711726407678 16.990714730406093 M84.9660555736057 16.34271804539089 C84.71487160426271 16.494987243727465, 84.46368763491971 16.647256442064037, 83.89711726407678 16.990714730406093 M83.89711726407678 16.990714730406093 C83.45737478646517 17.22012809930757, 83.01763230885356 17.449541468209045, 82.78885791279238 17.56889292409717 M83.89711726407678 16.990714730406093 C83.53668622462166 17.17875137282273, 83.17625518516654 17.366788015239365, 82.78885791279238 17.56889292409717 M82.78885791279238 17.56889292409717 C82.3893156619866 17.74575842652912, 81.98977341118082 17.92262392896107, 81.6458315951478 18.07487676824742 M82.78885791279238 17.56889292409717 C82.3530778562815 17.76179982815846, 81.91729779977061 17.954706732219744, 81.6458315951478 18.07487676824742 M81.6458315951478 18.07487676824742 C81.3518965885609 18.183047567776814, 81.057961581974 18.291218367306207, 80.47273525146062 18.506587066708033 M81.6458315951478 18.07487676824742 C81.30762628164831 18.19933944995088, 80.96942096814882 18.32380213165434, 80.47273525146062 18.506587066708033 M80.47273525146062 18.506587066708033 C80.22809762623558 18.579194229745724, 79.98346000101056 18.651801392783415, 79.27438938623541 18.86224982926107 M80.47273525146062 18.506587066708033 C80.0137682788318 18.642806055017466, 79.55480130620299 18.779025043326897, 79.27438938623541 18.86224982926107 M79.27438938623541 18.86224982926107 C78.9859450711832 18.928085361896674, 78.69750075613098 18.993920894532277, 78.05571825967677 19.140403561325773 M79.27438938623541 18.86224982926107 C78.9093392353759 18.945570144019896, 78.54428908451636 19.028890458778722, 78.05571825967677 19.140403561325773 M78.05571825967677 19.140403561325773 C77.80788892804964 19.180470685718078, 77.5600595964225 19.22053781011038, 76.82172965284788 19.3399052695533 M78.05571825967677 19.140403561325773 C77.79043452419081 19.18329257837305, 77.52515078870485 19.22618159542032, 76.82172965284788 19.3399052695533 M76.82172965284788 19.3399052695533 C76.33940337179261 19.38643470580448, 75.85707709073733 19.43296414205566, 75.5774942896239 19.45993515863156 M76.82172965284788 19.3399052695533 C76.54380331575321 19.366716489037497, 76.26587697865854 19.3935277085217, 75.5774942896239 19.45993515863156 M75.5774942896239 19.45993515863156 C75.28665670689601 19.46926175382863, 74.99581912416814 19.4785883490257, 74.328125 19.5 M75.5774942896239 19.45993515863156 C75.21985992901173 19.471403796483337, 74.86222556839958 19.482872434335114, 74.328125 19.5 M74.328125 19.5 C74.328125 19.5, 74.328125 19.5, 74.328125 19.5 M74.328125 19.5 C74.328125 19.5, 74.328125 19.5, 74.328125 19.5 M74.328125 19.5 C26.03248048138473 19.5, -22.26316403723054 19.5, -74.328125 19.5 M74.328125 19.5 C20.8253722825542 19.5, -32.6773804348916 19.5, -74.328125 19.5 M-74.328125 19.5 C-74.75301930053962 19.48637446678828, -75.17791360107924 19.472748933576558, -75.5774942896239 19.45993515863156 M-74.328125 19.5 C-74.70605224788923 19.487880608750956, -75.08397949577845 19.475761217501912, -75.5774942896239 19.45993515863156 M-75.5774942896239 19.45993515863156 C-75.88591040775661 19.430182626639947, -76.19432652588932 19.400430094648335, -76.82172965284786 19.3399052695533 M-75.5774942896239 19.45993515863156 C-75.86777237633324 19.431932380717186, -76.15805046304256 19.403929602802812, -76.82172965284786 19.3399052695533 M-76.82172965284786 19.3399052695533 C-77.1751543426821 19.282766306550304, -77.52857903251633 19.22562734354731, -78.05571825967675 19.140403561325773 M-76.82172965284786 19.3399052695533 C-77.29227505041906 19.263831138808044, -77.76282044799026 19.18775700806279, -78.05571825967675 19.140403561325773 M-78.05571825967675 19.140403561325773 C-78.36155588370917 19.070598119417387, -78.66739350774158 19.000792677509, -79.27438938623538 18.862249829261074 M-78.05571825967675 19.140403561325773 C-78.41502068058605 19.058395128420642, -78.77432310149537 18.976386695515508, -79.27438938623538 18.862249829261074 M-79.27438938623538 18.862249829261074 C-79.54171951731591 18.78290764960087, -79.80904964839642 18.703565469940663, -80.47273525146059 18.506587066708043 M-79.27438938623538 18.862249829261074 C-79.69437532323258 18.737600207711477, -80.11436126022977 18.612950586161883, -80.47273525146059 18.506587066708043 M-80.47273525146059 18.506587066708043 C-80.79373564587593 18.388455954268085, -81.11473604029125 18.270324841828124, -81.6458315951478 18.074876768247425 M-80.47273525146059 18.506587066708043 C-80.82359241755381 18.37746838629765, -81.17444958364702 18.248349705887257, -81.6458315951478 18.074876768247425 M-81.6458315951478 18.074876768247425 C-81.98248269875246 17.925851311081807, -82.31913380235714 17.77682585391619, -82.78885791279238 17.568892924097174 M-81.6458315951478 18.074876768247425 C-81.9685407669039 17.932022990738453, -82.29124993866002 17.78916921322948, -82.78885791279238 17.568892924097174 M-82.78885791279238 17.568892924097174 C-83.16347890774702 17.37345339098554, -83.53809990270166 17.1780138578739, -83.89711726407678 16.990714730406097 M-82.78885791279238 17.568892924097174 C-83.19484516271837 17.35708963585803, -83.60083241264435 17.14528634761889, -83.89711726407678 16.990714730406097 M-83.89711726407678 16.990714730406097 C-84.21105862265037 16.800401633914586, -84.52499998122394 16.610088537423074, -84.96605557360569 16.3427180453909 M-83.89711726407678 16.990714730406097 C-84.26365893577183 16.7685150149866, -84.63020060746688 16.54631529956711, -84.96605557360569 16.3427180453909 M-84.96605557360569 16.3427180453909 C-85.303232097499 16.10751829845939, -85.64040862139233 15.872318551527881, -85.99128034457871 15.627565626425156 M-84.96605557360569 16.3427180453909 C-85.20001056995397 16.179521167686893, -85.43396556630226 16.01632428998289, -85.99128034457871 15.627565626425156 M-85.99128034457871 15.627565626425156 C-86.27842195289334 15.398577834953343, -86.56556356120797 15.16959004348153, -86.96857870850187 14.848196188198125 M-85.99128034457871 15.627565626425156 C-86.25603804482462 15.416428405977339, -86.52079574507053 15.205291185529521, -86.96857870850187 14.848196188198125 M-86.96857870850187 14.848196188198125 C-87.19449311034997 14.643026705807198, -87.42040751219808 14.437857223416271, -87.89393473676797 14.007812326905697 M-86.96857870850187 14.848196188198125 C-87.2711771541639 14.57338428616401, -87.57377559982592 14.298572384129896, -87.89393473676797 14.007812326905697 M-87.89393473676797 14.007812326905697 C-88.09479656515427 13.80040599803405, -88.29565839354055 13.592999669162404, -88.76354594296865 13.109867360095677 M-87.89393473676797 14.007812326905697 C-88.15237474035679 13.740951804881345, -88.4108147439456 13.474091282856994, -88.76354594296865 13.109867360095677 M-88.76354594296865 13.109867360095677 C-88.966769335676 12.871149599282981, -89.16999272838336 12.632431838470286, -89.57383890812658 12.158051136245307 M-88.76354594296865 13.109867360095677 C-88.97193347050934 12.865083512660144, -89.18032099805005 12.62029966522461, -89.57383890812658 12.158051136245307 M-89.57383890812658 12.158051136245307 C-89.8225153948882 11.824847298878726, -90.07119188164984 11.491643461512146, -90.32148396464063 11.156274872382316 M-89.57383890812658 12.158051136245307 C-89.76148035871744 11.906628686941374, -89.9491218093083 11.655206237637442, -90.32148396464063 11.156274872382316 M-90.32148396464063 11.156274872382316 C-90.45987520608752 10.943668762268228, -90.5982664475344 10.73106265215414, -91.00340887860425 10.108655082055249 M-90.32148396464063 11.156274872382316 C-90.59147288336058 10.741499391052551, -90.86146180208051 10.326723909722785, -91.00340887860425 10.108655082055249 M-91.00340887860425 10.108655082055249 C-91.18442570397028 9.787241378676667, -91.3654425293363 9.465827675298083, -91.6168114742735 9.019496659696289 M-91.00340887860425 10.108655082055249 C-91.13103884640853 9.882035150283084, -91.25866881421281 9.655415218510921, -91.6168114742735 9.019496659696289 M-91.6168114742735 9.019496659696289 C-91.78372924663967 8.67288833390977, -91.95064701900581 8.326280008123248, -92.15917114880834 7.893275190886686 M-91.6168114742735 9.019496659696289 C-91.79885566622013 8.641477999997395, -91.98089985816677 8.2634593402985, -92.15917114880834 7.893275190886686 M-92.15917114880834 7.893275190886686 C-92.27405342619889 7.609513744634306, -92.38893570358942 7.325752298381925, -92.62825922997033 6.73461856121551 M-92.15917114880834 7.893275190886686 C-92.3196460673784 7.4968990394471495, -92.48012098594846 7.100522888007612, -92.62825922997033 6.73461856121551 M-92.62825922997033 6.73461856121551 C-92.7643741328261 6.324662160778538, -92.90048903568187 5.914705760341566, -93.02214813421489 5.5482879393051325 M-92.62825922997033 6.73461856121551 C-92.7159776628081 6.470424617542443, -92.80369609564586 6.206230673869377, -93.02214813421489 5.5482879393051325 M-93.02214813421489 5.5482879393051325 C-93.13551891787885 5.115956005985973, -93.24888970154282 4.683624072666813, -93.33921928754556 4.339158212148136 M-93.02214813421489 5.5482879393051325 C-93.10740478161688 5.223167392296628, -93.19266142901887 4.898046845288123, -93.33921928754556 4.339158212148136 M-93.33921928754556 4.339158212148136 C-93.40481254995431 4.002350672820126, -93.47040581236305 3.6655431334921147, -93.57816977658177 3.112197953150904 M-93.33921928754556 4.339158212148136 C-93.42517526842612 3.8977924171294718, -93.51113124930667 3.4564266221108073, -93.57816977658177 3.112197953150904 M-93.57816977658177 3.112197953150904 C-93.63490600485459 2.6721629705025602, -93.69164223312738 2.2321279878542164, -93.73801770250937 1.872449005199809 M-93.57816977658177 3.112197953150904 C-93.62418993132363 2.7552747206805144, -93.6702100860655 2.3983514882101247, -93.73801770250937 1.872449005199809 M-93.73801770250937 1.872449005199809 C-93.76006336999443 1.5290699391774614, -93.78210903747949 1.1856908731551137, -93.81810621591342 0.6250057626472781 M-93.73801770250937 1.872449005199809 C-93.76249859471007 1.4911393485534563, -93.78697948691075 1.1098296919071038, -93.81810621591342 0.6250057626472781 M-93.81810621591342 0.6250057626472781 C-93.81810621591342 0.3207553625613548, -93.81810621591342 0.01650496247543143, -93.81810621591342 -0.6250057626472687 M-93.81810621591342 0.6250057626472781 C-93.81810621591342 0.3126735779450158, -93.81810621591342 0.00034139324275350713, -93.81810621591342 -0.6250057626472687 M-93.81810621591342 -0.6250057626472687 C-93.78729612369784 -1.1048978183636131, -93.75648603148227 -1.5847898740799575, -93.73801770250937 -1.8724490051997822 M-93.81810621591342 -0.6250057626472687 C-93.80060670616214 -0.8975747523733331, -93.78310719641088 -1.1701437420993974, -93.73801770250937 -1.8724490051997822 M-93.73801770250937 -1.8724490051997822 C-93.6741455360053 -2.3678289156194383, -93.61027336950123 -2.863208826039094, -93.57816977658177 -3.112197953150895 M-93.73801770250937 -1.8724490051997822 C-93.67663058084094 -2.3485553986018073, -93.61524345917252 -2.824661792003832, -93.57816977658177 -3.112197953150895 M-93.57816977658177 -3.112197953150895 C-93.52244766938226 -3.39831919674885, -93.46672556218276 -3.6844404403468047, -93.33921928754556 -4.339158212148126 M-93.57816977658177 -3.112197953150895 C-93.4878682329365 -3.575877294531352, -93.39756668929124 -4.039556635911809, -93.33921928754556 -4.339158212148126 M-93.33921928754556 -4.339158212148126 C-93.267536533615 -4.612515620387457, -93.19585377968443 -4.885873028626788, -93.02214813421489 -5.548287939305123 M-93.33921928754556 -4.339158212148126 C-93.26479617077207 -4.622965811588305, -93.19037305399857 -4.9067734110284835, -93.02214813421489 -5.548287939305123 M-93.02214813421489 -5.548287939305123 C-92.89096452933212 -5.943392055943011, -92.75978092444936 -6.338496172580899, -92.62825922997033 -6.734618561215485 M-93.02214813421489 -5.548287939305123 C-92.91390341578285 -5.874303784768639, -92.80565869735082 -6.200319630232155, -92.62825922997033 -6.734618561215485 M-92.62825922997033 -6.734618561215485 C-92.52930241171619 -6.979043815503146, -92.43034559346204 -7.2234690697908075, -92.15917114880834 -7.893275190886676 M-92.62825922997033 -6.734618561215485 C-92.50264135976387 -7.044897129281723, -92.37702348955742 -7.355175697347962, -92.15917114880834 -7.893275190886676 M-92.15917114880834 -7.893275190886676 C-91.9961902753063 -8.231708461945699, -91.83320940180428 -8.57014173300472, -91.6168114742735 -9.019496659696282 M-92.15917114880834 -7.893275190886676 C-91.94840779237904 -8.330929810125513, -91.73764443594975 -8.76858442936435, -91.6168114742735 -9.019496659696282 M-91.6168114742735 -9.019496659696282 C-91.40628736377116 -9.393303535771022, -91.19576325326881 -9.76711041184576, -91.00340887860425 -10.108655082055243 M-91.6168114742735 -9.019496659696282 C-91.38438064830179 -9.432201127382363, -91.15194982233008 -9.844905595068443, -91.00340887860425 -10.108655082055243 M-91.00340887860425 -10.108655082055243 C-90.82411251800185 -10.384102439754676, -90.64481615739945 -10.65954979745411, -90.32148396464063 -11.156274872382308 M-91.00340887860425 -10.108655082055243 C-90.84639381555971 -10.349872383339655, -90.68937875251518 -10.591089684624066, -90.32148396464063 -11.156274872382308 M-90.32148396464063 -11.156274872382308 C-90.08783963349289 -11.46933699068384, -89.85419530234515 -11.782399108985368, -89.57383890812659 -12.158051136245302 M-90.32148396464063 -11.156274872382308 C-90.16424460845766 -11.366961284867452, -90.0070052522747 -11.577647697352596, -89.57383890812659 -12.158051136245302 M-89.57383890812659 -12.158051136245302 C-89.28185281222031 -12.50103461897634, -88.98986671631404 -12.844018101707375, -88.76354594296866 -13.10986736009567 M-89.57383890812659 -12.158051136245302 C-89.33037165445269 -12.44404162608986, -89.08690440077878 -12.730032115934419, -88.76354594296866 -13.10986736009567 M-88.76354594296866 -13.10986736009567 C-88.53162738634707 -13.34934231067508, -88.29970882972546 -13.58881726125449, -87.89393473676799 -14.007812326905677 M-88.76354594296866 -13.10986736009567 C-88.49743501608256 -13.384648740218982, -88.23132408919646 -13.659430120342293, -87.89393473676799 -14.007812326905677 M-87.89393473676799 -14.007812326905677 C-87.61125790856325 -14.264531943062199, -87.3285810803585 -14.521251559218722, -86.9685787085019 -14.848196188198107 M-87.89393473676799 -14.007812326905677 C-87.66190544105369 -14.218535194114652, -87.4298761453394 -14.429258061323626, -86.9685787085019 -14.848196188198107 M-86.9685787085019 -14.848196188198107 C-86.76198120312216 -15.012952200947927, -86.55538369774244 -15.177708213697748, -85.99128034457871 -15.627565626425149 M-86.9685787085019 -14.848196188198107 C-86.71761740260264 -15.048331151291933, -86.4666560967034 -15.248466114385756, -85.99128034457871 -15.627565626425149 M-85.99128034457871 -15.627565626425149 C-85.74426666277016 -15.799871677804859, -85.49725298096159 -15.972177729184569, -84.96605557360571 -16.342718045390885 M-85.99128034457871 -15.627565626425149 C-85.69189899334079 -15.836401097038916, -85.39251764210285 -16.045236567652683, -84.96605557360571 -16.342718045390885 M-84.96605557360571 -16.342718045390885 C-84.67953755431321 -16.516406952452773, -84.39301953502071 -16.690095859514663, -83.89711726407678 -16.99071473040609 M-84.96605557360571 -16.342718045390885 C-84.70022002013363 -16.503869120128776, -84.43438446666156 -16.665020194866667, -83.89711726407678 -16.99071473040609 M-83.89711726407678 -16.99071473040609 C-83.58044638886639 -17.155921723165974, -83.263775513656 -17.321128715925862, -82.7888579127924 -17.56889292409717 M-83.89711726407678 -16.99071473040609 C-83.63645006335457 -17.126704642057557, -83.37578286263236 -17.26269455370903, -82.7888579127924 -17.56889292409717 M-82.7888579127924 -17.56889292409717 C-82.35602818546258 -17.760493804948407, -81.92319845813275 -17.952094685799647, -81.64583159514781 -18.07487676824742 M-82.7888579127924 -17.56889292409717 C-82.33886296578123 -17.76809233851319, -81.88886801877007 -17.967291752929206, -81.64583159514781 -18.07487676824742 M-81.64583159514781 -18.07487676824742 C-81.30258041269096 -18.201196376370692, -80.95932923023409 -18.327515984493964, -80.47273525146062 -18.506587066708033 M-81.64583159514781 -18.07487676824742 C-81.32831076822193 -18.191727367686493, -81.01078994129605 -18.308577967125565, -80.47273525146062 -18.506587066708033 M-80.47273525146062 -18.506587066708033 C-80.09895245180185 -18.617523839620805, -79.72516965214307 -18.728460612533574, -79.27438938623541 -18.862249829261067 M-80.47273525146062 -18.506587066708033 C-80.00889953554265 -18.644251072469128, -79.5450638196247 -18.781915078230224, -79.27438938623541 -18.862249829261067 M-79.27438938623541 -18.862249829261067 C-79.01858943475678 -18.920634498935385, -78.76278948327814 -18.9790191686097, -78.05571825967677 -19.140403561325773 M-79.27438938623541 -18.862249829261067 C-78.85969722867921 -18.956900608104043, -78.44500507112302 -19.05155138694702, -78.05571825967677 -19.140403561325773 M-78.05571825967677 -19.140403561325773 C-77.77267135800743 -19.186164389326166, -77.4896244563381 -19.23192521732656, -76.82172965284788 -19.3399052695533 M-78.05571825967677 -19.140403561325773 C-77.63804836029253 -19.207929191579773, -77.22037846090828 -19.275454821833772, -76.82172965284788 -19.3399052695533 M-76.82172965284788 -19.3399052695533 C-76.52536950999661 -19.368494776108943, -76.22900936714532 -19.397084282664586, -75.5774942896239 -19.45993515863156 M-76.82172965284788 -19.3399052695533 C-76.5350829190793 -19.367557735216817, -76.24843618531072 -19.39521020088034, -75.5774942896239 -19.45993515863156 M-75.5774942896239 -19.45993515863156 C-75.11348467689429 -19.474815043771876, -74.64947506416468 -19.489694928912193, -74.328125 -19.5 M-75.5774942896239 -19.45993515863156 C-75.16078792814467 -19.47329812057447, -74.74408156666546 -19.48666108251738, -74.328125 -19.5 M-74.328125 -19.5 C-74.328125 -19.5, -74.328125 -19.5, -74.328125 -19.5 M-74.328125 -19.5 C-74.328125 -19.5, -74.328125 -19.5, -74.328125 -19.5" stroke="#5eead4" stroke-width="2" fill="none" stroke-dasharray="0 0" style="fill:#134e4a !important;stroke:#5eead4 !important;stroke-width:2px !important"/></g><g class="label" style="color:#f0fdfa !important" transform="translate(-81.453125, -12)"><rect/><foreignObject width="162.90625" height="24"><div style="color: rgb(240, 253, 250) !important; display: table-cell; white-space: nowrap; line-height: 1.5; max-width: 200px; text-align: center;" xmlns="http://www.w3.org/1999/xhtml"><span style="color:#f0fdfa !important" class="nodeLabel"><p>Tagged&lt;T&gt; or T stream</p></span></div></foreignObject></g></g><g class="node default app" id="my-svg-flowchart-UI-16" data-look="classic" transform="translate(189.83203125, 650)"><rect class="basic label-container" style="fill:#172554 !important;stroke:#60a5fa !important;stroke-width:2px !important" x="-98.3203125" y="-27" width="196.640625" height="54"/><g class="label" style="color:#dbeafe !important" transform="translate(-68.3203125, -12)"><rect/><foreignObject width="136.640625" height="24"><div style="color: rgb(219, 234, 254) !important; display: table-cell; white-space: nowrap; line-height: 1.5; max-width: 200px; text-align: center;" xmlns="http://www.w3.org/1999/xhtml"><span style="color:#dbeafe !important" class="nodeLabel"><p>Chat UI · SSE proxy</p></span></div></foreignObject></g></g><g class="node default app" id="my-svg-flowchart-AGENT-17" data-look="classic" transform="translate(436.83984375, 650)"><rect class="basic label-container" style="fill:#172554 !important;stroke:#60a5fa !important;stroke-width:2px !important" x="-98.6875" y="-27" width="197.375" height="54"/><g class="label" style="color:#dbeafe !important" transform="translate(-68.6875, -12)"><rect/><foreignObject width="137.375" height="24"><div style="color: rgb(219, 234, 254) !important; display: table-cell; white-space: nowrap; line-height: 1.5; max-width: 200px; text-align: center;" xmlns="http://www.w3.org/1999/xhtml"><span style="color:#dbeafe !important" class="nodeLabel"><p>Multi-model agents</p></span></div></foreignObject></g></g><g class="node default app" id="my-svg-flowchart-MET-18" data-look="classic" transform="translate(919.22265625, 650)"><rect class="basic label-container" style="fill:#172554 !important;stroke:#60a5fa !important;stroke-width:2px !important" x="-117.2421875" y="-27" width="234.484375" height="54"/><g class="label" style="color:#dbeafe !important" transform="translate(-87.2421875, -12)"><rect/><foreignObject width="174.484375" height="24"><div style="color: rgb(219, 234, 254) !important; display: table-cell; white-space: nowrap; line-height: 1.5; max-width: 200px; text-align: center;" xmlns="http://www.w3.org/1999/xhtml"><span style="color:#dbeafe !important" class="nodeLabel"><p>onSourceEvent · metrics</p></span></div></foreignObject></g></g><g class="node default app" id="my-svg-flowchart-ROUTE-19" data-look="classic" transform="translate(668.75390625, 650)"><rect class="basic label-container" style="fill:#172554 !important;stroke:#60a5fa !important;stroke-width:2px !important" x="-83.2265625" y="-27" width="166.453125" height="54"/><g class="label" style="color:#dbeafe !important" transform="translate(-53.2265625, -12)"><rect/><foreignObject width="106.453125" height="24"><div style="color: rgb(219, 234, 254) !important; display: table-cell; white-space: nowrap; line-height: 1.5; max-width: 200px; text-align: center;" xmlns="http://www.w3.org/1999/xhtml"><span style="color:#dbeafe !important" class="nodeLabel"><p>Winner routing</p></span></div></foreignObject></g></g></g></g></g><defs><filter id="my-svg-drop-shadow" height="130%" width="130%"><feDropShadow dx="4" dy="4" stdDeviation="0" flood-opacity="0.06" flood-color="#000000"/></filter></defs><defs><filter id="my-svg-drop-shadow-small" height="150%" width="150%"><feDropShadow dx="2" dy="2" stdDeviation="0" flood-opacity="0.06" flood-color="#000000"/></filter></defs></svg>